<?xml version="1.0" encoding="UTF-8" standalone="no"?> <svg width="64" height="64" viewBox="0 0 64 64" fill="none" xmlns="http://www.w3.org/2000/svg">
<path d="M9 1.94922H55C55.7956 1.94922 56.5587 2.26529 57.1213 2.8279C57.6839 3.39051 58 4.15357 58 4.94922V38.9992H6V4.94922C6 4.15357 6.31607 3.39051 6.87868 2.8279C7.44129 2.26529 8.20435 1.94922 9 1.94922V1.94922Z" fill="#606060"/>
<path d="M55 1.94922H9C8.20435 1.94922 7.44129 2.26529 6.87868 2.8279C6.31607 3.39051 6 4.15357 6 4.94922V38.9992H8V6.94922C8 6.15357 8.31607 5.39051 8.87868 4.8279C9.44129 4.26529 10.2044 3.94922 11 3.94922H57C57.292 3.95306 57.5818 4.00024 57.86 4.08922C57.6771 3.47224 57.2999 2.93075 56.7847 2.5452C56.2694 2.15966 55.6435 1.95065 55 1.94922V1.94922Z" fill="#707070"/>
<path d="M54 5.94922H10V38.9992H54V5.94922Z" fill="#4C94FC"/>
<path d="M24 10C17.373 10 12 16.423 12 23.05C12 26.2326 13.2643 29.2848 15.5147 31.5353C17.7652 33.7857 20.8174 35.05 24 35.05C27.1826 35.05 30.2348 33.7857 32.4853 31.5353C34.7357 29.2848 36 26.2326 36 23.05C36 16.423 30.627 10 24 10Z" fill="#3C8BFC"/>
<path d="M49 14.0508H41C40.7348 14.0508 40.4804 13.9454 40.2929 13.7579C40.1054 13.5704 40 13.316 40 13.0508C40 12.7856 40.1054 12.5312 40.2929 12.3437C40.4804 12.1561 40.7348 12.0508 41 12.0508H49C49.2652 12.0508 49.5196 12.1561 49.7071 12.3437C49.8946 12.5312 50 12.7856 50 13.0508C50 13.316 49.8946 13.5704 49.7071 13.7579C49.5196 13.9454 49.2652 14.0508 49 14.0508Z" fill="#3C8BFC"/>
<path d="M49 18.0508H41C40.7348 18.0508 40.4804 17.9454 40.2929 17.7579C40.1054 17.5704 40 17.316 40 17.0508C40 16.7856 40.1054 16.5312 40.2929 16.3437C40.4804 16.1561 40.7348 16.0508 41 16.0508H49C49.2652 16.0508 49.5196 16.1561 49.7071 16.3437C49.8946 16.5312 50 16.7856 50 17.0508C50 17.316 49.8946 17.5704 49.7071 17.7579C49.5196 17.9454 49.2652 18.0508 49 18.0508Z" fill="#3C8BFC"/>
<path d="M49 22.0508H41C40.7348 22.0508 40.4804 21.9454 40.2929 21.7579C40.1054 21.5704 40 21.316 40 21.0508C40 20.7856 40.1054 20.5312 40.2929 20.3437C40.4804 20.1561 40.7348 20.0508 41 20.0508H49C49.2652 20.0508 49.5196 20.1561 49.7071 20.3437C49.8946 20.5312 50 20.7856 50 21.0508C50 21.316 49.8946 21.5704 49.7071 21.7579C49.5196 21.9454 49.2652 22.0508 49 22.0508Z" fill="#3C8BFC"/>
<path d="M14 51H11C10.7348 51 10.4804 50.8946 10.2929 50.7071C10.1054 50.5196 10 50.2652 10 50V44C10 43.7348 10.1054 43.4804 10.2929 43.2929C10.4804 43.1054 10.7348 43 11 43C11.2652 43 11.5196 43.1054 11.7071 43.2929C11.8946 43.4804 12 43.7348 12 44V49H14C14.2652 49 14.5196 49.1054 14.7071 49.2929C14.8946 49.4804 15 49.7348 15 50C15 50.2652 14.8946 50.5196 14.7071 50.7071C14.5196 50.8946 14.2652 51 14 51Z" fill="#CECECE"/>
<path d="M30 56H26C25.8274 56 25.6578 55.9553 25.5077 55.8703C25.3575 55.7853 25.2319 55.6629 25.143 55.515L22.434 51H18C17.7348 51 17.4804 50.8946 17.2929 50.7071C17.1054 50.5196 17 50.2652 17 50C17 49.7348 17.1054 49.4804 17.2929 49.2929C17.4804 49.1054 17.7348 49 18 49H23C23.1726 49 23.3422 49.0447 23.4923 49.1297C23.6425 49.2147 23.7681 49.3371 23.857 49.485L26.566 54H30C30.2652 54 30.5196 54.1054 30.7071 54.2929C30.8946 54.4804 31 54.7348 31 55C31 55.2652 30.8946 55.5196 30.7071 55.7071C30.5196 55.8946 30.2652 56 30 56Z" fill="#CECECE"/>
<path d="M6 55C5.73478 55 5.48043 54.8946 5.29289 54.7071C5.10536 54.5196 5 54.2652 5 54V44C5 43.7348 5.10536 43.4804 5.29289 43.2929C5.48043 43.1054 5.73478 43 6 43C6.26522 43 6.51957 43.1054 6.70711 43.2929C6.89464 43.4804 7 43.7348 7 44V54C7 54.2652 6.89464 54.5196 6.70711 54.7071C6.51957 54.8946 6.26522 55 6 55Z" fill="#CECECE"/>
<path d="M38 62H19C18.8392 61.9999 18.6808 61.9611 18.5382 61.8867C18.3957 61.8124 18.2731 61.7048 18.181 61.573L14.979 57H8C7.73478 57 7.48043 56.8946 7.29289 56.7071C7.10536 56.5196 7 56.2652 7 56C7 55.7348 7.10536 55.4804 7.29289 55.2929C7.48043 55.1054 7.73478 55 8 55H15.5C15.6608 55.0001 15.8192 55.0389 15.9618 55.1133C16.1043 55.1876 16.2269 55.2952 16.319 55.427L19.521 60H38C38.2652 60 38.5196 60.1054 38.7071 60.2929C38.8946 60.4804 39 60.7348 39 61C39 61.2652 38.8946 61.5196 38.7071 61.7071C38.5196 61.8946 38.2652 62 38 62Z" fill="#CECECE"/>
<path d="M16 53C17.6569 53 19 51.6569 19 50C19 48.3431 17.6569 47 16 47C14.3431 47 13 48.3431 13 50C13 51.6569 14.3431 53 16 53Z" fill="#F2C341"/>
<path d="M6 59C7.65685 59 9 57.6569 9 56C9 54.3431 7.65685 53 6 53C4.34315 53 3 54.3431 3 56C3 57.6569 4.34315 59 6 59Z" fill="#F2C341"/>
<path d="M3 39H60C60 40.3261 59.4732 41.5979 58.5355 42.5355C57.5979 43.4732 56.3261 44 55 44H8C6.67392 44 5.40215 43.4732 4.46447 42.5355C3.52678 41.5979 3 40.3261 3 39Z" fill="#707070"/>
<path d="M55 42H8C7.02789 41.9991 6.07713 41.7149 5.26405 41.182C4.45097 40.6492 3.81084 39.891 3.422 39H3C3 40.3261 3.52678 41.5979 4.46447 42.5355C5.40215 43.4732 6.67392 44 8 44H55C56.3261 44 57.5979 43.4732 58.5355 42.5355C59.4732 41.5979 60 40.3261 60 39H59.578C59.1892 39.891 58.549 40.6492 57.736 41.182C56.9229 41.7149 55.9721 41.9991 55 42V42Z" fill="#606060"/>
<path d="M25 8.94922C18.373 8.94922 13 15.3722 13 21.9992C13 25.1818 14.2643 28.2341 16.5147 30.4845C18.7652 32.7349 21.8174 33.9992 25 33.9992C28.1826 33.9992 31.2348 32.7349 33.4853 30.4845C35.7357 28.2341 37 25.1818 37 21.9992C37 15.3722 31.627 8.94922 25 8.94922Z" fill="#F2C341"/>
<path d="M56 31H38C36.6739 31 35.4021 31.5268 34.4645 32.4645C33.5268 33.4021 33 34.6739 33 36V62H52V36C52.0026 34.7638 52.4645 33.5726 53.2961 32.6578C54.1277 31.7431 55.2696 31.17 56.5 31.05C56.333 31.034 56.171 31 56 31Z" fill="#F2F2F2"/>
<path d="M52 36.0008V37.0008H61V36.0008C60.9974 34.7645 60.5355 33.5734 59.7039 32.6586C58.8723 31.7439 57.7304 31.1708 56.5 31.0508C55.2696 31.1708 54.1277 31.7439 53.2961 32.6586C52.4645 33.5734 52.0026 34.7645 52 36.0008V36.0008Z" fill="#8F8F8F"/>
<path d="M36 38C36 36.6739 36.5268 35.4021 37.4645 34.4645C38.4021 33.5268 39.6739 33 41 33H53.036C53.4494 32.4554 53.9701 32.0014 54.5659 31.666C55.1617 31.3306 55.82 31.1209 56.5 31.05C56.333 31.034 56.171 31 56 31H38C36.6739 31 35.4021 31.5268 34.4645 32.4645C33.5268 33.4021 33 34.6739 33 36V62H36V38Z" fill="#EAEAEA"/>
<path d="M15 21.9992C15 15.7092 19.842 9.50822 26 8.99922C25.669 8.97222 25.338 8.94922 25 8.94922C18.373 8.94922 13 15.3722 13 21.9992C13 25.1818 14.2643 28.2341 16.5147 30.4845C18.7652 32.7349 21.8174 33.9992 25 33.9992C25.338 33.9992 25.669 33.9762 26 33.9492C23.0024 33.6985 20.2083 32.3312 18.171 30.118C16.1338 27.9049 15.0021 25.0073 15 21.9992V21.9992Z" fill="#F7BD1C"/>
<path d="M41 41H36C35.7348 41 35.4804 40.8946 35.2929 40.7071C35.1054 40.5196 35 40.2652 35 40C35 39.7348 35.1054 39.4804 35.2929 39.2929C35.4804 39.1054 35.7348 39 36 39H41C41.2652 39 41.5196 39.1054 41.7071 39.2929C41.8946 39.4804 42 39.7348 42 40C42 40.2652 41.8946 40.5196 41.7071 40.7071C41.5196 40.8946 41.2652 41 41 41Z" fill="#F2C341"/>
<path d="M48 41H45C44.7348 41 44.4804 40.8946 44.2929 40.7071C44.1054 40.5196 44 40.2652 44 40C44 39.7348 44.1054 39.4804 44.2929 39.2929C44.4804 39.1054 44.7348 39 45 39H48C48.2652 39 48.5196 39.1054 48.7071 39.2929C48.8946 39.4804 49 39.7348 49 40C49 40.2652 48.8946 40.5196 48.7071 40.7071C48.5196 40.8946 48.2652 41 48 41Z" fill="#F2C341"/>
<path d="M48 45H36C35.7348 45 35.4804 44.8946 35.2929 44.7071C35.1054 44.5196 35 44.2652 35 44C35 43.7348 35.1054 43.4804 35.2929 43.2929C35.4804 43.1054 35.7348 43 36 43H48C48.2652 43 48.5196 43.1054 48.7071 43.2929C48.8946 43.4804 49 43.7348 49 44C49 44.2652 48.8946 44.5196 48.7071 44.7071C48.5196 44.8946 48.2652 45 48 45Z" fill="#F2C341"/>
<path d="M41 49H36C35.7348 49 35.4804 48.8946 35.2929 48.7071C35.1054 48.5196 35 48.2652 35 48C35 47.7348 35.1054 47.4804 35.2929 47.2929C35.4804 47.1054 35.7348 47 36 47H41C41.2652 47 41.5196 47.1054 41.7071 47.2929C41.8946 47.4804 42 47.7348 42 48C42 48.2652 41.8946 48.5196 41.7071 48.7071C41.5196 48.8946 41.2652 49 41 49Z" fill="#F2C341"/>
<path d="M48 49H45C44.7348 49 44.4804 48.8946 44.2929 48.7071C44.1054 48.5196 44 48.2652 44 48C44 47.7348 44.1054 47.4804 44.2929 47.2929C44.4804 47.1054 44.7348 47 45 47H48C48.2652 47 48.5196 47.1054 48.7071 47.2929C48.8946 47.4804 49 47.7348 49 48C49 48.2652 48.8946 48.5196 48.7071 48.7071C48.5196 48.8946 48.2652 49 48 49Z" fill="#F2C341"/>
<path d="M48 53H36C35.7348 53 35.4804 52.8946 35.2929 52.7071C35.1054 52.5196 35 52.2652 35 52C35 51.7348 35.1054 51.4804 35.2929 51.2929C35.4804 51.1054 35.7348 51 36 51H48C48.2652 51 48.5196 51.1054 48.7071 51.2929C48.8946 51.4804 49 51.7348 49 52C49 52.2652 48.8946 52.5196 48.7071 52.7071C48.5196 52.8946 48.2652 53 48 53Z" fill="#F2C341"/>
<path d="M28 29V20C28 19.7348 27.8946 19.4804 27.7071 19.2929C27.5196 19.1054 27.2652 19 27 19H21C20.7348 19 20.4804 19.1054 20.2929 19.2929C20.1054 19.4804 20 19.7348 20 20C20 20.2652 20.1054 20.5196 20.2929 20.7071C20.4804 20.8946 20.7348 21 21 21H22V29C21.7348 29 21.4804 29.1054 21.2929 29.2929C21.1054 29.4804 21 29.7348 21 30C21 30.2652 21.1054 30.5196 21.2929 30.7071C21.4804 30.8946 21.7348 31 22 31H28C28.2652 31 28.5196 30.8946 28.7071 30.7071C28.8946 30.5196 29 30.2652 29 30C29 29.7348 28.8946 29.4804 28.7071 29.2929C28.5196 29.1054 28.2652 29 28 29Z" fill="white"/>
<path d="M25 18C26.6569 18 28 16.6569 28 15C28 13.3431 26.6569 12 25 12C23.3431 12 22 13.3431 22 15C22 16.6569 23.3431 18 25 18Z" fill="white"/>
<path d="M50 13H42C41.7348 13 41.4804 12.8946 41.2929 12.7071C41.1054 12.5196 41 12.2652 41 12C41 11.7348 41.1054 11.4804 41.2929 11.2929C41.4804 11.1054 41.7348 11 42 11H50C50.2652 11 50.5196 11.1054 50.7071 11.2929C50.8946 11.4804 51 11.7348 51 12C51 12.2652 50.8946 12.5196 50.7071 12.7071C50.5196 12.8946 50.2652 13 50 13Z" fill="white"/>
<path d="M50 17H42C41.7348 17 41.4804 16.8946 41.2929 16.7071C41.1054 16.5196 41 16.2652 41 16C41 15.7348 41.1054 15.4804 41.2929 15.2929C41.4804 15.1054 41.7348 15 42 15H50C50.2652 15 50.5196 15.1054 50.7071 15.2929C50.8946 15.4804 51 15.7348 51 16C51 16.2652 50.8946 16.5196 50.7071 16.7071C50.5196 16.8946 50.2652 17 50 17Z" fill="white"/>
<path d="M50 21H42C41.7348 21 41.4804 20.8946 41.2929 20.7071C41.1054 20.5196 41 20.2652 41 20C41 19.7348 41.1054 19.4804 41.2929 19.2929C41.4804 19.1054 41.7348 19 42 19H50C50.2652 19 50.5196 19.1054 50.7071 19.2929C50.8946 19.4804 51 19.7348 51 20C51 20.2652 50.8946 20.5196 50.7071 20.7071C50.5196 20.8946 50.2652 21 50 21Z" fill="white"/>
</svg>
