<svg xmlns="http://www.w3.org/2000/svg" width="435.069" height="435.776" viewBox="0 0 435.069 435.776">
  <g id="Component_1_1" data-name="Component 1 – 1" transform="translate(0 0)">
    <path id="Path_3" data-name="Path 3" d="M238.992,452.518c2.954-9.122,6.128-11.386,15.335-11.551,41.265-.739,78.668-12.955,112.07-37.4a192.414,192.414,0,0,0,59.128-70.193,188.087,188.087,0,0,0,19.71-77.679c.135-3.472.065-7.2,1.327-10.307,1.075-2.647,3.63-5.02,6.1-6.674,2-1.341,3.107-2.111,2.886-4.855-2.575-31.957-11.087-62.042-27.846-89.561-3.707-6.086-7.6-12.061-11.58-17.974a6.175,6.175,0,0,0-3.44-2.31c-6.675-1.549-8.274-4.472-5.714-11.528,2.989-.974,5.659-3.954,8.861-1.047,2.534,2.3,4.043,4.666,2.394,8.294a5.028,5.028,0,0,0,.416,4.254c10.28,14.088,19.343,28.941,25.186,45.362,4.952,13.914,8.878,28.231,12.515,42.559,1.77,6.971,2.034,14.359,2.58,21.589.195,2.573.375,4.343,3.226,5.161,5.921,1.7,7.871,6.452,7.808,11.92-.3,26.375-4.5,52.156-15.115,76.358a404.2,404.2,0,0,1-23.045,43.875c-4.934,8.3-11.577,15.7-18.1,22.928a215.225,215.225,0,0,1-49.557,40.832c-22.543,13.486-46.54,23.047-72.446,27.279-12.682,2.072-25.558,3.179-38.393,4.012C244.55,466.435,240,461.773,238.992,452.518Z" transform="translate(-34.881 -30.137)" fill="#033554"/>
    <path id="Path_4" data-name="Path 4" d="M265.85,42.531c-2.97,9.09-9.292,11.544-18.373,11.72a187.013,187.013,0,0,0-93.85,26.819,191.806,191.806,0,0,0-65.9,64.734C71.81,171.648,62.015,199.7,59.943,230.193c-.339,4.982-.611,9.97-.943,14.953-.346,5.184-2.5,9.077-7.369,11.546a5.719,5.719,0,0,0-2.488,4.441,194.112,194.112,0,0,0,13.62,61.582A198.794,198.794,0,0,0,86.3,365.969c1.566,2.185,2.758,3.37,5.822,3.358,2.076-.009,5.467,2.2,5.919,4.005.583,2.331-1.179,5.249-2.059,8.25-8.367,1.427-8.691.53-10.234-7.767-.791-4.253-4.35-7.96-6.505-12-6.146-11.511-12.656-22.858-18.158-34.672a131.476,131.476,0,0,1-8.771-25.162c-2.754-11.681-4.3-23.648-6.286-35.507-.739-4.422-.448-8.817-6.229-10.992-2.332-.876-4.363-5.456-4.6-8.5-1.172-14.963,1.113-29.722,4.032-44.356C44.9,174.2,56.358,148.12,72.611,124.289c6.549-9.6,14.447-18.406,22.516-26.82,8.276-8.63,16.78-17.384,26.508-24.192,12.629-8.839,26.38-16.157,39.986-23.5,18.664-10.074,39.107-15.089,59.855-18.209,11.409-1.716,23.171-1.44,34.77-1.371,5.213.031,6.852,5.083,8.658,9.18C265.3,40.262,265.429,41.263,265.85,42.531Z" transform="translate(-34.881 -30.137)" fill="#033554"/>
    <path id="Path_5" data-name="Path 5" d="M77.482,293.019c-8.926-36.029-7.588-71.664,4.94-106.615a180.387,180.387,0,0,1,186.466-118.8,179.785,179.785,0,0,1,121.123,63.383,171.925,171.925,0,0,1,33.737,61.191c3,9.824,4.766,20.024,6.721,30.4-13.626-12.773-26.811-25.963-40.181-38.965-3.553-3.455-7.672-6.328-11.493-9.5.037-.033.126.009.117-.342a7.339,7.339,0,0,0-1.616-1.952c-1.591-2.068-2.778-4.072-4.282-5.8-9.307-10.711-22.018-14.08-35.278-14.739-11.007-.547-22.1.741-33.46,1.229-2.152-4.5-4.42-9.652-7.031-14.623-7.1-13.528-15.629-25.805-29.775-33.042-16.881-8.636-36.878-.735-46.52,13.488-2.784,3.64-5.418,6.976-8.364,10.483-3.676,6.628-7.391,12.933-10.276,19.6-1.8,4.162-3.852,5.093-8.256,4.278-16.44-3.042-32.873-3.177-48.642,3.276-12.153,4.973-21.355,15.09-22.461,29.832-1.486,19.819,7.686,35.95,18.419,51.732-2.687,9.219-5.391,18.126-7.91,27.086-.505,1.793-.3,3.785-.557,6.046-2.787,7.311-5.446,14.262-8.409,21.375-5.01,2.078-4,6.432-4.32,10.1-.048.555,1.811,1.275,2.75,2.368-.642,13.348,5.211,23.017,15.221,30.86a2.4,2.4,0,0,0,.9.64c-.04,0-.045-.078.077.17a6.808,6.808,0,0,0,1,.749c-.081,0-.065-.16.068.143a5.933,5.933,0,0,0,1.927.824,1.133,1.133,0,1,0-.014.282c.653,1.659,1.08,3.218,2.075,4.2q25.618,25.419,51.375,50.7c1.81,1.779,3.786,3.388,5.97,5.328l-1.032,2.349c11.24,6.639,18.988,16.438,27.467,25.427-14.522-1.274-28.364-5.336-41.849-10.6a175.933,175.933,0,0,1-55.076-34.293C111.426,363.346,96.17,342.26,86.022,317.6a75.824,75.824,0,0,1-3.043-8.51,58.988,58.988,0,0,1,3.98-6.126c.026.034-.016-.038.384-.012,1.443-1.008,3.09-1.882,3.415-3.106a90.684,90.684,0,0,0,1.951-11.01c.076-.553-.747-1.229-1.48-2.039-6.257-1.106-9.574,3.452-13.746,6.219m37.086,7.493-2.952-1.552c.984-2.927,6.605-3.794,3.735-8.612-2.72,2.223-7.449,2.146-6.591,7.468a38.782,38.782,0,0,1,.094,5.781,46.467,46.467,0,0,0,5.714-3.085m-11.777-4.645c-1.052-.576-2.758-1.874-3.05-1.609a22.917,22.917,0,0,0-4.6,5.443c-.4.706.408,2.731,1.253,3.345.815.593,3.16.613,3.49.07C101.072,301.152,101.7,298.845,102.791,295.867Z" transform="translate(-34.881 -30.137)" fill="#025fce"/>
    <path id="Path_6" data-name="Path 6" d="M228.291,426.383c-8.811-9.2-16.559-19-27.8-25.635l1.032-2.349c-2.184-1.94-4.16-3.549-5.97-5.328q-25.731-25.305-51.375-50.7a7.758,7.758,0,0,1-1.717-4.117c16.759,6.9,33.729,7.249,50.977,4.114,3.478-.633,6.788-1.322,8.538,3.289,3.831,11.552,9.9,21.334,17.431,30.446,8.594,10.4,18.865,17.182,32.393,18.375-4.567,3.3-1.725,5.894.183,9.272l-4.864-.881a24.8,24.8,0,0,0,.3,4.534c15.766.37,31.238.474,46.709.53a13.441,13.441,0,0,0,2.186-.715c2.408-.057,4.443-.23,6.463-.12,6.773.368,9.024-2.274,7.5-9.381-1.386.1-2.834.209-4.661.266-3.008-1.15-5.574-1.822-7.621.7a15.966,15.966,0,0,0-1.109-2.923c-5-.448-3.447,3.814-4.985,6.28-1.526,1.029-2.743,1.909-4.554,3.218.231-2.1.367-3.327.471-4.888-.74-1.223-1.427-2.851-2.164-2.874-3.211-.1-6.437.271-9.91.21-2.443-.048-4.633.165-7.208.348a61.649,61.649,0,0,1-6.7.691,39.138,39.138,0,0,0-4.19-.919,10.211,10.211,0,0,1-1.348-3.837,49.831,49.831,0,0,0,25.542-14.562c10.03-10.769,16.921-23.6,22.523-37.536a31.337,31.337,0,0,1,5.81.5,94.013,94.013,0,0,0,46.844-2.635,34.631,34.631,0,0,0,24.23-36.035c.325-2.072-.007-4.089.694-5.638.92-2.035,2.689-3.678,4-5.555.2-.282-.12-.922-.209-1.451a28.813,28.813,0,0,1-5.606,1.34c-2.495-6.672-4.924-12.968-7.263-19.611,1.18-1.761,2.061-3.431,3.406-4.538,3.375-2.781,4.826-5.727,2.052-9.755a4.873,4.873,0,0,1-.278-2.756,49.647,49.647,0,0,0-.98-7.885c-2.44-.673-5.162-2.088-6.771-1.282-3.609,1.81-6.666,4.723-10.106,6.89-1.446-1.587-2.733-2.877-4.025-4.589.467-1.969.938-3.517,1.478-5.118a.7.7,0,0,1,.46-.26c1.81-2.185,3.307-4.323,5.058-6.689,3.822-6.17,7.793-11.909,10.877-18.091,7.085-14.2,9.943-29.011,4.72-44.592,3.858,3.14,7.977,6.013,11.53,9.468,13.37,13,26.555,26.192,40.133,39.374a157.144,157.144,0,0,1-2.029,62.611c-.56,2.416-1.064,4.845-1.978,7.784-6.584,4.255-7.26,7.347-2.643,10.857-5.546,11.852-10.406,24.087-16.78,35.474-13.025,23.266-31.2,42.055-53.235,57.011-33.721,22.894-71.063,33.144-111.742,31.242-4.475-.209-8.927-.906-13.723-1.586m.8-22.043s.205-.118.955.328c2.631,1.732,4.749,2.333,5.168-1.98.065-.673,1.172-1.245,1.807-1.061.935,1.427,1.634,3.77,2.856,4.085,2.35.6,6.2-4.652,5.9-7.892-.358-3.876-3.349-2.6-6.347-2.943-2.814-1.035-5.577-1.794-8.236,1.073l-5.18.672a15.1,15.1,0,0,1,.237,5.164c-.177.172-.354.345-1.4.458-.483.283-.965.566-1.5-.123v-6.809l-1.783-.481c-2.175,3.267-4.349,6.535-7.255,10.9,3.37-.538,5.081-4.48,6.878-.577a3.351,3.351,0,0,1,2.547-1.232c1.285,4.141,3.306,2.156,5.395.98l.231.257a2.019,2.019,0,0,1-.277-.82M394.054,299.109c-.139-.151-.278-.3-.137-1.057l2.451-5.715a11.557,11.557,0,0,0-5.537,4.654,7.979,7.979,0,0,0-.64,4.717,2.975,2.975,0,0,0,2.521,1.45c1.258-.467,2.24-1.68,3.335-2.585a8.982,8.982,0,0,1-1.993-1.464m20.825,2.349v-6.031c-3.192,0-6.112-.024-9.032.006-3.8.038-5.159,2.583-3.712,7.421C406.146,302.543,410.243,302.226,414.879,301.458Z" transform="translate(-34.881 -30.137)" fill="#02469b"/>
    <path id="Path_7" data-name="Path 7" d="M80.943,309.009l-3.061.041,2.475-5.761a8.675,8.675,0,0,1-1.9-1.1,4.785,4.785,0,0,0,.488-4.806c1.058.413,2.4.876,3.153.4,2.467-1.553,4.719-3.448,7.054-5.211l.7.73-2.913,9.624s.042.072-.324.066C84.483,304.995,82.713,307,80.943,309.009Z" transform="translate(-34.881 -30.137)" fill="#d2b539"/>
    <path id="Path_8" data-name="Path 8" d="M78.96,297.005a16.392,16.392,0,0,1,.374,3A3.732,3.732,0,0,1,78.19,302a1.382,1.382,0,0,1-1.11-.356c-.378-.432-.521-.529-.695-.579.293-2.454.586-4.908.988-7.7,4.281-3.109,7.6-7.667,13.832-6.184-.7,1.735-1.721,3.919-2.7,3.9C83.871,290.985,81.507,294.035,78.96,297.005Z" transform="translate(-34.881 -30.137)" fill="#e5bb26"/>
    <path id="Path_9" data-name="Path 9" d="M424.046,304.23c-4.892-3.5-4.216-6.59,2.31-10.451C430.408,297.092,429.347,301.837,424.046,304.23Z" transform="translate(-34.881 -30.137)" fill="#d2b539"/>
    <path id="Path_10" data-name="Path 10" d="M81.238,308.964a50.678,50.678,0,0,1,5.355-6,56.119,56.119,0,0,1-3.684,5.758A3.764,3.764,0,0,1,81.238,308.964Z" transform="translate(-34.881 -30.137)" fill="#245786"/>
    <path id="Path_11" data-name="Path 11" d="M76.4,301.214c.157-.1.3,0,.47.255C76.705,301.642,76.535,301.568,76.4,301.214Z" transform="translate(-34.881 -30.137)" fill="#d2b539"/>
    <path id="Path_12" data-name="Path 12" d="M378.8,174.115c5.186,15.614,2.328,30.424-4.757,44.625-3.084,6.182-7.055,11.921-11.148,17.855a17.381,17.381,0,0,1-1.911-4.6c0,.018.025.047.01-.336-1.359-.786-2.7-1.189-4.08-1.954,3.733-7.555,8.242-14.464,11.121-22,6.5-17,5.7-35.42-13.539-42.8-15.393-5.9-30.793-4.64-45.777-2.146,3.038,15.649,5.866,30.636,8.948,45.571a10.584,10.584,0,0,0,3.262,5.145c5.458,5.007,11.133,9.778,17.358,15.186-3.183,2.381-5.738,4.292-8.44,5.924a21.924,21.924,0,0,1-2.791-2.171c-.409-1.725-.88-4.173-1.173-4.152-2.332.169-5.195.114-6.819,1.443-3.26,2.667-5.839,6.167-8.865,9a6.454,6.454,0,0,1-.45-1.973c.07-.235-.1-.695-.032-1.112-.244-4.157-.558-7.9-.812-11.882,0-.4-.052-.561-.062-1.166-.171-2.221-.389-3.994-.492-5.9.049-.395-.119-.539-.373-.6.015-.034-.058-.046-.088-.3a2.9,2.9,0,0,0-.921-.715c0-.038-.073-.007-.226-.259-1.016-.7-1.879-1.14-2.957-1.85-2.986-2.19-5.757-4.115-8.656-6.284-.466-.369-.8-.492-1.337-.891-11.369-6.786-22.54-13.3-33.894-20.047a7.249,7.249,0,0,0-1.871-.772c0,.037.055-.008-.116-.26-.724-.485-1.278-.72-1.943-1.17-.564-.369-1.017-.521-1.73-.951a24.27,24.27,0,0,0-4.68.421c-3.429,1.639-6.6,3.092-9.569,4.873-9.742,5.839-19.413,11.8-29.394,17.813a17.007,17.007,0,0,0-1.567,1.325,1.587,1.587,0,0,1-.283.066c-.508.306-.742.577-1.3.9-2.4,1.642-4.464,3.231-6.815,4.879-.736.409-1.19.758-2.032,1.163-3.524,1.023-6.66,1.991-10.115,2.991-1.716.919-3.114,1.806-4.757,2.843a4,4,0,0,0-.756,1.132c.033.006.01-.057-.249.016a2.638,2.638,0,0,0-.749.986c.031.009.009-.052-.238.032A3.318,3.318,0,0,0,181,223s.005,0-.248.159a6.866,6.866,0,0,0-.771,1.836c.022,0,0-.038-.236.229-.813,2.3-1.392,4.34-2.258,6.557-3.132,2.6-5.976,5.023-8.984,7.089A71.73,71.73,0,0,1,166.393,229c3.952-3.6,7.293-7.357,11.193-10.393,5.641-4.391,10.305-8.84,10.56-16.82.193-6.05,1.809-12.055,2.851-18.448l9.424,2.187c-.839,5.676-1.607,10.88-2.373,16.06L239.5,176.215a185.277,185.277,0,0,0-52.371-14.776c-13.909-1.8-27.951-1.754-40.962,5.2-6.69,3.577-11.644,8.881-12.9,16.208-2.647,15.476,3.023,28.951,11.695,41.748-1.222,4.453-2.384,8.546-3.547,12.638-10.781-15.488-19.953-31.619-18.467-51.438,1.106-14.742,10.308-24.859,22.461-29.832,15.769-6.453,32.2-6.318,48.642-3.276,4.4.815,6.453-.116,8.256-4.278a150.642,150.642,0,0,1,10.6-19.406,44.873,44.873,0,0,1,7.915,4.381c-3.82,7.426-7.593,14.513-11.158,21.21,14.26,5.407,27.415,10.469,40.652,15.307a7.987,7.987,0,0,0,5.068-.429c6.676-2.533,13.235-5.375,19.9-7.942a63.666,63.666,0,0,1,7.079-1.854l2.663,8.748-20.389,7.633,41.541,25.435a47.9,47.9,0,0,0-.723-6.2c-2.693-10.963-4.906-22.094-8.424-32.792-5-15.212-11.622-29.783-23.394-41.212-8.937-8.676-19.285-13.663-31.59-7.855-5.11,2.412-9.277,6.82-13.929,9.969-2.375-2.028-4.7-3.7-7.014-5.38,9.491-13.918,29.488-21.819,46.369-13.183,14.146,7.237,22.67,19.514,29.775,33.042,2.611,4.971,4.879,10.123,7.031,14.623,11.355-.488,22.453-1.776,33.46-1.229,13.26.659,25.971,4.028,35.278,14.739,1.5,1.73,2.691,3.734,4.4,6.109.754,1,1.129,1.5,1.5,2C378.921,174.124,378.832,174.082,378.8,174.115Z" transform="translate(-34.881 -30.137)" fill="#eff3f6"/>
    <path id="Path_13" data-name="Path 13" d="M201.939,345.294c-1.712-4.247-5.022-3.558-8.5-2.925-17.248,3.135-34.218,2.788-50.939-4.481-.358-.087-.4-.032-.529-.286a7.966,7.966,0,0,0-1.913-.843s-.016.162-.008-.124a2.252,2.252,0,0,0-1.052-.713s.005.08-.059-.146c-.287-.511-.579-.634-.939-.6-9.865-7.664-15.718-17.333-14.895-30.968a22.306,22.306,0,0,1,3.41-3.732c-4.924-.637-2.82-2.154-1.275-3.935a34.557,34.557,0,0,0,2.982-4.75l-1.194-.708-2.23.786c2.659-6.95,5.318-13.9,8.448-21.246,5.7.967,7.189-2.489,7.786-6.449.682-4.531,3.045-6.123,7.4-5.357a20.987,20.987,0,0,1,3.321.492c-4.282,7.186-8.755,13.894-12.474,21-1.993,3.8-4.812,7.726-3.775,12.778-2.766,3.121-5.078,6.1-2.745,10.638-.457,12.826,5.059,21.317,16.545,26.065,15.435,6.381,31.1,5.005,47.135,2.3-1.379-5.329-2.692-9.964-3.759-14.655s-1.884-9.42-2.68-14.4c2.689-1.821,3.794-3.966,2.8-7.336,1.071-2.985,2.173-5.582,3.275-8.178L194.4,286.5a72.457,72.457,0,0,1-6.419,5.958c-1.16-3.588-1.352-7.555-3.406-9.878-4-4.522-9.036-8.123-13.285-12.182,1.939-.2,3.518-.315,5.581-.471a58.965,58.965,0,0,1-1.89-7.954,31.124,31.124,0,0,1,5.123,2.474c4.044,4.571,8.633,7.268,14.725,6.859.247,1.106.454,1.9.635,3.11,1.315,2.653,2.182,5.472,4.084,7.021,4.975,4.051,10.4,7.547,15.444,11.481-.225,1.216-.244,2.213-.363,3.531a26.566,26.566,0,0,1-2.725,5.674c-1.966-1.1-3.5-2.059-5.211-3.148a41.92,41.92,0,0,1-.17-4.557c-7.472.256-8.113,1.076-6.941,9.161.434,2.239.625,4.059,1.131,5.786,3.184,10.871,6.438,21.722,9.266,32.608C207.027,343.1,204.483,344.2,201.939,345.294Z" transform="translate(-34.881 -30.137)" fill="#eef0f2"/>
    <path id="Path_14" data-name="Path 14" d="M151.87,259a26.953,26.953,0,0,1-3.443-.179c-4.35-.766-6.713.826-7.4,5.357-.6,3.96-2.089,7.416-7.657,6.088a14.82,14.82,0,0,1,.085-5.651c2.519-8.96,5.223-17.867,7.91-27.086,1.211-4.386,2.373-8.479,3.781-13.28,1.271-3.117,1.889-7.247,3.4-7.6a30.619,30.619,0,0,1,12.763,0c1.273.256,1.853,4.155,2.675,6.413.734,2.018,1.365,4.073,2.041,6.113.771,3.116,1.542,6.233,2.519,10.1,2.154,8.051,4.1,15.352,6.05,22.654.708,2.5,1.416,5,2.267,8.005-2.063.156-3.642.275-6.018.4-10.108-.063-10.269-.018-12.657-8.586-1.1-3.965-3.786-2.844-6.321-2.743M148,239a4.692,4.692,0,0,1-.507.435c-.421,1.546-.841,3.092-1.582,5.32-.468,1.514-.907,3.038-1.41,4.54-.93,2.773.527,3.015,3.542,2.594h7.592c-1.3-4.681-2.437-8.763-3.24-13.314-.406-1.23-.811-2.46-1.282-3.732,0,0,.078-.007.231-.709l-.933-3.393-.972.1c-.162,1.38-.324,2.76-.443,4.165,0,0-.033-.036-.547.466C148.3,236.65,148.161,237.832,148,239Z" transform="translate(-34.881 -30.137)" fill="#f20b0c"/>
    <path id="Path_15" data-name="Path 15" d="M220.867,133.047c-2.444-1.341-4.888-2.681-7.65-4.212,2.315-3.527,4.949-6.863,7.733-10.5a28.6,28.6,0,0,1,7.033,5.406C225.559,127.3,223.213,130.172,220.867,133.047Z" transform="translate(-34.881 -30.137)"/>
    <path id="Path_16" data-name="Path 16" d="M114.41,300.768c-1.957,1.114-3.756,1.972-5.556,2.829a38.782,38.782,0,0,0-.094-5.781c-.858-5.322,3.871-5.245,6.591-7.468,2.87,4.818-2.751,5.685-3.735,8.612A11.545,11.545,0,0,1,114.41,300.768Z" transform="translate(-34.881 -30.137)" fill="#d2b539"/>
    <path id="Path_17" data-name="Path 17" d="M78.946,297.384c2.561-3.349,4.925-6.4,9.56-6.308.979.02,2-2.164,3.027-3.709.43.243,1.253.919,1.177,1.472a90.684,90.684,0,0,1-1.951,11.01c-.325,1.224-1.972,2.1-3.415,3.106a84.275,84.275,0,0,1,2.513-9.65l-.7-.73c-2.335,1.763-4.587,3.658-7.054,5.211C81.346,298.26,80,297.8,78.946,297.384Z" transform="translate(-34.881 -30.137)" fill="#245786"/>
    <path id="Path_18" data-name="Path 18" d="M102.665,296.267a41.405,41.405,0,0,1-2.785,6.849c-.33.543-2.674.523-3.49-.07-.844-.614-1.656-2.639-1.253-3.345a22.917,22.917,0,0,1,4.6-5.443C100.033,293.993,101.739,295.291,102.665,296.267Z" transform="translate(-34.881 -30.137)" fill="#c8af3f"/>
    <path id="Path_19" data-name="Path 19" d="M124.494,292.037c1.048-.425,1.791-.687,2.534-.949l1.194.708a34.557,34.557,0,0,1-2.982,4.75c-1.545,1.781-3.649,3.3,1.275,3.935-1.364,1.28-2.278,2.138-3.372,3.282-1.158-.356-3.017-1.076-2.969-1.631C120.492,298.469,119.484,294.115,124.494,292.037Z" transform="translate(-34.881 -30.137)" fill="#eac237"/>
    <path id="Path_20" data-name="Path 20" d="M378.912,173.773c-.366-.149-.741-.649-1.237-1.455A3.6,3.6,0,0,1,378.912,173.773Z" transform="translate(-34.881 -30.137)" fill="#02469b"/>
    <path id="Path_21" data-name="Path 21" d="M140.191,337.062a2.515,2.515,0,0,1,1.8.569A2.51,2.51,0,0,1,140.191,337.062Z" transform="translate(-34.881 -30.137)" fill="#02469b"/>
    <path id="Path_22" data-name="Path 22" d="M138.145,335.36c.215-.218.507-.095.834.414C138.786,335.9,138.522,335.748,138.145,335.36Z" transform="translate(-34.881 -30.137)" fill="#02469b"/>
    <path id="Path_23" data-name="Path 23" d="M139.12,336.17c.231-.106.585.036,1.012.463C139.884,336.75,139.563,336.584,139.12,336.17Z" transform="translate(-34.881 -30.137)" fill="#02469b"/>
    <path id="Path_24" data-name="Path 24" d="M372.778,273.16c2.428,6.3,4.857,12.592,7.223,19.588-.654,2.765-1.771,4.857-1.665,6.886.078,1.5,1.753,2.908,2.717,4.357,1.636,15.8-8.444,30.962-24.031,35.772a94.013,94.013,0,0,1-46.844,2.635,36.269,36.269,0,0,0-6.205-.547,60.064,60.064,0,0,1-10.05-2.226c-10.1-3.714-20.428-6.212-29.756-10.765-9.181-4.483-17.1-3.858-25.534.849a58.863,58.863,0,0,1-9.255,3.694c-2.4.845-4.9,1.43-7.665,2.22-.852-3.467-1.514-6.161-2.242-9.121l20.715-7.752c-1.384-.807-2.1-1.209-2.805-1.636-7.205-4.378-14.408-8.759-21.4-13.394,1.372-1.269,2.537-2.283,4.556-4.04h-4.954a26.848,26.848,0,0,1,2.885-3.543,7.043,7.043,0,0,1,1.735,0,23.746,23.746,0,0,1,4.569,2.495c.114,1.923.258,3.452.462,5.627a43.08,43.08,0,0,1,5.321-2.047c6.139,3.215,12.02,6.213,17.76,9.462a7.055,7.055,0,0,0,7.861-.075c6.029-3.483,12.284-6.576,18.722-9.618,3.693.827,7.407,3.25,8.915-1.591a26.308,26.308,0,0,1,.6-4.5c3.685-2.449,7.082-4.721,10.354-6.527-1.342,4.823-2.559,9.179-4.073,13.705-8.724,5.245-17.15,10.321-26.109,15.718,18.285,7.678,36.555,13.086,55.679,15.033,10.767,1.1,21.574,1.05,32.035-2.836,11.232-4.173,19.165-11.274,19.254-23.826.048-6.649-1.68-13.468-3.575-19.927-1.647-5.614-4.654-10.829-6.651-16.2,3.065-.64,5.719-1.3,8.407-1.613A40.754,40.754,0,0,0,372.778,273.16Z" transform="translate(-34.881 -30.137)" fill="#eff2f4"/>
    <path id="Path_25" data-name="Path 25" d="M294.13,339.941c3.015.689,6.031,1.377,9.443,2.108-4.807,13.779-11.7,26.612-21.728,37.381a48.981,48.981,0,0,1-25.937,14.5c-1.8.164-2.868.215-3.931.265-13.7-.913-23.975-7.691-32.569-18.1-7.527-9.112-13.6-18.894-17.431-30.446a33.168,33.168,0,0,1,8.2-3.426c6.81,13.281,13.189,26.074,24.84,35.544,9.308,7.567,23.311,8.207,32.9.866C281,368.624,288.626,355.03,294.13,339.941Z" transform="translate(-34.881 -30.137)"/>
    <path id="Path_26" data-name="Path 26" d="M369.7,269.075c-2.654.658-5.308,1.316-8.338,1.952-.376-.022-.365.047-.4-.2a2.124,2.124,0,0,0-1.032-1.119c-1.5-1.616-2.781-2.918-4.066-4.22a36.425,36.425,0,0,1-2.062,5.066c-2.784,4.738-5.307,9.731-8.769,13.936-2.54,3.086-5.993,1.959-6.821-2.079-.688-3.351-.148-6.954.093-10.693,1.467-2.708,2.69-5.169,3.917-7.638-4.768,2.234-8.9,4.169-13.354,5.966a55.982,55.982,0,0,1-3.725-6.381c-.021-8.277,4.124-13.417,11.246-16.62a17.219,17.219,0,0,1,2.324,4.69c-2.9,3.472-5.568,6.736-8.625,10.475,8.989,1.474,22.884-15.423,24.013-27.56a17.387,17.387,0,0,1,2.653-3.475c1.649.326,2.953.592,4.257.859,0,0-.021-.029-.092.347-1.088,3.979-2.106,7.581-3.123,11.183,0,0-.078.157-.459.319a36.593,36.593,0,0,0-2.386,5.079c0,.018.026-.006-.287.119a7.809,7.809,0,0,0-.9,1.644c-4.873,7.468-4.874,7.644.367,12.549l6.221-9.494c3.281-2.464,6.338-5.377,9.947-7.187,1.609-.806,4.331.609,6.689,1.647.124,4.872-2.981,6.786-5.945,8.894a49.578,49.578,0,0,0-6.029,5.237c3.819,6.578,7.071-2.107,12.273.446l-7.586,6.254m-23.1,8.868c3.627-6.836,3.279-9.483-2.172-10.56-.426,3.356-1.073,6.68-1.184,10.022C343.181,279.292,344.135,280.861,346.6,277.943Z" transform="translate(-34.881 -30.137)" fill="#efef19"/>
    <path id="Path_27" data-name="Path 27" d="M251.8,394.479a13.35,13.35,0,0,1,3.761-.373,13.659,13.659,0,0,1,1.919,4.042,77.589,77.589,0,0,1-2.38,7.584l5.518-1.609c-.06-.256-.121-.513-.181-.769l-2.7-.38c.009-.227.019-.454.028-.681a16.954,16.954,0,0,1,4.271-.039c.092,1.028.169,1.7.328,3.077,1.493-2.412,2.554-4.124,4.311-6.961.309,3.079.478,4.767.688,6.867,3.649-2.083,3.192-4.5,1.556-7.15a24.277,24.277,0,0,1,6.607-.037c-.188,2.638-.412,4.674-.648,6.819l10.843-.637-.126-.883L282.735,403l5.114-2.3c-.135,1.228-.271,2.455-.5,4.555A28.963,28.963,0,0,1,292.2,402.2a40.128,40.128,0,0,1,4.081,2.763c.417.021.583.031.676.312a1.97,1.97,0,0,1-1.456.8c-12.854-.108-25.25-.228-37.643-.122-3.636.031-7.267.7-10.845,1.079.055-.005.108.092.108.092v-4.26l4.864.881C250.076,400.373,247.234,397.782,251.8,394.479Z" transform="translate(-34.881 -30.137)" fill="#264385"/>
    <path id="Path_28" data-name="Path 28" d="M414.609,301.683c-4.366.543-8.463.86-12.474,1.171-1.447-4.838-.088-7.383,3.712-7.421,2.92-.03,5.84-.006,9.032-.006A49.464,49.464,0,0,1,414.609,301.683Z" transform="translate(-34.881 -30.137)" fill="#d4b02a"/>
    <path id="Path_29" data-name="Path 29" d="M369.732,269.418c2.316-2.28,4.667-4.218,7.552-6.6-5.2-2.553-8.454,6.132-11.885-.435,4.445-2.335,8.45-4.3,12.455-6.262a6.418,6.418,0,0,0,.471,2.4c2.774,4.028,1.323,6.974-2.052,9.755-1.345,1.107-2.226,2.777-3.406,4.538A14.012,14.012,0,0,1,369.732,269.418Z" transform="translate(-34.881 -30.137)" fill="#284b70"/>
    <path id="Path_30" data-name="Path 30" d="M360.19,253.487c-1.885,3.416-3.928,6.534-6.062,9.791-5.241-4.905-5.24-5.081-.132-12.759a7.94,7.94,0,0,0,.974-1.559s-.024.024.18.063c.471.139.743.225,1.019.3C357.457,250.61,358.744,251.9,360.19,253.487Z" transform="translate(-34.881 -30.137)" fill="#d9dddf"/>
    <path id="Path_31" data-name="Path 31" d="M295.959,406.155c.308-.2.615-.4,1.316-.934,3.168-2.615,5.943-4.9,8.719-7.187l4.283-.316c1.521,7.107-.73,9.749-7.5,9.381-2.02-.11-4.055.063-6.469.03-.385-.077-.276-.22-.291-.409S295.959,406.155,295.959,406.155Z" transform="translate(-34.881 -30.137)" fill="#b6afe7"/>
    <path id="Path_32" data-name="Path 32" d="M287.818,400.373A31.574,31.574,0,0,1,282.735,403l2.862.347.126.883-10.843.637c.236-2.145.46-4.181.9-6.558a53.075,53.075,0,0,1,9.873-.812C286.391,397.522,287.078,399.15,287.818,400.373Z" transform="translate(-34.881 -30.137)" fill="#a9a1db"/>
    <path id="Path_33" data-name="Path 33" d="M240.119,395.3c2.306-.08,5.3-1.359,5.655,2.517.3,3.24-3.547,8.5-5.9,7.892-1.222-.315-1.921-2.658-2.864-4.845A35.668,35.668,0,0,1,240.119,395.3Z" transform="translate(-34.881 -30.137)" fill="#098f65"/>
    <path id="Path_34" data-name="Path 34" d="M239.773,395.09a51.278,51.278,0,0,1-2.764,5.375c-.623.978-1.73,1.55-1.795,2.223-.419,4.313-2.537,3.712-5.339,1.508-.482-2.6-.793-4.725-1.134-7.048l3.084-.856C233.85,393.083,236.613,393.842,239.773,395.09Z" transform="translate(-34.881 -30.137)" fill="#305f71"/>
    <path id="Path_35" data-name="Path 35" d="M223.391,403.164l-2.2,1.991c-1.8-3.9-3.508.039-6.878.577,2.906-4.366,5.08-7.634,7.255-10.9l1.783.481c0,2.27,0,4.54.047,7.287C223.448,403.076,223.391,403.164,223.391,403.164Z" transform="translate(-34.881 -30.137)" fill="#ae1a30"/>
    <path id="Path_36" data-name="Path 36" d="M381.252,303.728c-1.163-1.186-2.838-2.6-2.916-4.094-.106-2.029,1.011-4.121,1.732-6.511a45.609,45.609,0,0,1,5.668-2.039c.089.529.406,1.169.209,1.451-1.31,1.877-3.079,3.52-4,5.555C381.245,299.639,381.577,301.656,381.252,303.728Z" transform="translate(-34.881 -30.137)" fill="#e7bd30"/>
    <path id="Path_37" data-name="Path 37" d="M394.387,299.628l1.66.945c-1.1.9-2.077,2.118-3.335,2.585a2.975,2.975,0,0,1-2.521-1.45,7.979,7.979,0,0,1,.64-4.717,11.557,11.557,0,0,1,5.537-4.654c-.817,1.9-1.634,3.81-2.854,6.185a2.332,2.332,0,0,0-.4,1.317Z" transform="translate(-34.881 -30.137)" fill="#c8af3f"/>
    <path id="Path_38" data-name="Path 38" d="M223.567,403.543a1.273,1.273,0,0,1-.14-.459,3.341,3.341,0,0,1,2.037-.546,6.662,6.662,0,0,0,2.32.127l-.965-1.35q-.4-2.348-.808-4.693a50.949,50.949,0,0,1,5.5-.5,14.145,14.145,0,0,1-2.767,1.027,65.969,65.969,0,0,1,.759,6.825c-.2.249-.409.367-.435.5s-.052.085-.052.085C227.048,406.079,225.027,408.064,223.567,403.543Z" transform="translate(-34.881 -30.137)" fill="#c8d8e7"/>
    <path id="Path_39" data-name="Path 39" d="M378.047,255.764c-4.2,2.324-8.2,4.287-12.6,6.24a41.781,41.781,0,0,1,5.588-4.866c2.964-2.108,6.069-4.022,6.168-8.629A49.7,49.7,0,0,1,378.047,255.764Z" transform="translate(-34.881 -30.137)" fill="#163865"/>
    <path id="Path_40" data-name="Path 40" d="M295.925,407.143a4.21,4.21,0,0,1-1.8.791c-15.471-.056-30.943-.16-46.709-.53-.3-.274-.349-.371.068-.381,16.46-.045,32.5-.08,48.545-.114A.506.506,0,0,0,295.925,407.143Z" transform="translate(-34.881 -30.137)" fill="#092e71"/>
    <path id="Path_41" data-name="Path 41" d="M305.616,397.984a88.03,88.03,0,0,1-8.267,6.966,1.012,1.012,0,0,1-1.016-.3,4.615,4.615,0,0,1,.714-2.711c4.513-.1-.35-2.184.956-2.928C300.042,396.162,302.608,396.834,305.616,397.984Z" transform="translate(-34.881 -30.137)" fill="#245786"/>
    <path id="Path_42" data-name="Path 42" d="M268.536,398.057c2.021,2.681,2.478,5.1-1.171,7.18-.21-2.1-.379-3.788-.688-6.867-1.757,2.837-2.818,4.549-4.311,6.961-.159-1.382-.236-2.049-.442-3.327a24.284,24.284,0,0,1-.067-2.942C263.955,398.717,266.053,398.372,268.536,398.057Z" transform="translate(-34.881 -30.137)" fill="#b6afe7"/>
    <path id="Path_43" data-name="Path 43" d="M296.734,401.926c-.2.8-.4,1.605-.651,2.718a27.215,27.215,0,0,1-3.574-2.591c.93-2.476-.627-6.738,4.325-5.872C296.9,398.555,296.818,400.24,296.734,401.926Z" transform="translate(-34.881 -30.137)" fill="#a9a1db"/>
    <path id="Path_44" data-name="Path 44" d="M261.841,398.748a27.852,27.852,0,0,0,.068,2.9,22.186,22.186,0,0,1-4.142.649c-.009.227-.019.454-.028.681l2.7.38c.06.256.121.513.181.769l-5.518,1.609c1.138-3.277,1.795-5.17,2.622-7.381A8.967,8.967,0,0,1,261.841,398.748Z" transform="translate(-34.881 -30.137)" fill="#a9a1db"/>
    <path id="Path_45" data-name="Path 45" d="M358.1,243.52c.7-3.554,1.721-7.156,2.8-11.153.531,1.145.994,2.683,1.728,4.457A37.1,37.1,0,0,1,358.1,243.52Z" transform="translate(-34.881 -30.137)" fill="#a1a376"/>
    <path id="Path_46" data-name="Path 46" d="M356.165,248.9c-.272.35-.544.264-1.017.107a21.884,21.884,0,0,1,2.113-5.064A45.513,45.513,0,0,1,356.165,248.9Z" transform="translate(-34.881 -30.137)" fill="#a1a376"/>
    <path id="Path_47" data-name="Path 47" d="M297.047,401.944a27.494,27.494,0,0,1-.009-5.493,5.7,5.7,0,0,1,.957,2.235C296.7,399.76,301.56,401.849,297.047,401.944Z" transform="translate(-34.881 -30.137)" fill="#264385"/>
    <path id="Path_48" data-name="Path 48" d="M229.075,404.73c-.062-.174-.035-.127-.035-.143.11.18.219.377.328.573A1.836,1.836,0,0,1,229.075,404.73Z" transform="translate(-34.881 -30.137)" fill="#305f71"/>
    <path id="Path_49" data-name="Path 49" d="M220.82,133.387c2.393-3.215,4.739-6.091,7.218-9.3,4.729-3.832,8.9-8.24,14.006-10.652,12.3-5.808,22.653-.821,31.59,7.855,11.772,11.429,18.391,26,23.394,41.212,3.518,10.7,5.731,21.829,8.424,32.792a47.9,47.9,0,0,1,.723,6.2L264.634,176.06l20.389-7.633-2.663-8.748a63.666,63.666,0,0,0-7.079,1.854c-6.664,2.567-13.223,5.409-19.9,7.942a7.987,7.987,0,0,1-5.068.429c-13.237-4.838-26.392-9.9-40.652-15.307C213.227,147.9,217,140.813,220.82,133.387Z" transform="translate(-34.881 -30.137)" fill="#03479c"/>
    <path id="Path_50" data-name="Path 50" d="M166.393,229a40.68,40.68,0,0,1-2.4-5.945c-.822-2.258-1.4-6.157-2.675-6.413a30.619,30.619,0,0,0-12.763,0c-1.511.357-2.129,4.487-3.341,7.243-8.917-12.088-14.587-25.563-11.94-41.039,1.253-7.327,6.207-12.631,12.9-16.208,13.011-6.957,27.053-7,40.962-5.2A185.277,185.277,0,0,1,239.5,176.215l-41.452,25.372c.766-5.18,1.534-10.384,2.373-16.06L191,183.34c-1.042,6.393-2.658,12.4-2.851,18.448-.255,7.98-4.919,12.429-10.56,16.82C173.686,221.644,170.345,225.4,166.393,229Z" transform="translate(-34.881 -30.137)" fill="#04479b"/>
    <path id="Path_51" data-name="Path 51" d="M336.041,246.887c-6.781,3.365-10.926,8.505-11.03,17.1a7.238,7.238,0,0,1-3.334,2.858,13.738,13.738,0,0,1-2.718-3.309c.382-3.434.63-6.491,1.2-9.69,1.347-1.188,2.757-2.06,3.318-3.312,2.31-5.158,4.362-10.432,6.508-15.663l8.293-6.2c-6.225-5.408-11.9-10.179-17.358-15.186a10.584,10.584,0,0,1-3.262-5.145c-3.082-14.935-5.91-29.922-8.948-45.571,14.984-2.494,30.384-3.754,45.777,2.146,19.239,7.376,20.036,25.8,13.539,42.8-2.879,7.531-7.388,14.44-11.332,22.01a6.972,6.972,0,0,0-.3,1.4,28.385,28.385,0,0,1-2.657,3.527c-2.62,2.661-4.739,5.037-7.116,7.269a11.7,11.7,0,0,1-2.542-1.331c-3.822-3.819-6.114-2.759-8,3.657C336.031,245.372,336.036,246.13,336.041,246.887Z" transform="translate(-34.881 -30.137)" fill="#04479b"/>
    <path id="Path_52" data-name="Path 52" d="M308.232,216.809a52.144,52.144,0,0,1,.475,5.865c-.337.886-.234,1.141.134,1.313.313,3.74.627,7.48.758,11.734-.321.825-.235,1.07.075,1.25a12.279,12.279,0,0,1,.345,2.016,4.165,4.165,0,0,1-1.719,2.064,18.839,18.839,0,0,0-2.242,3.582,5.1,5.1,0,0,1-1.6,1.429,13.188,13.188,0,0,0-1.206,2.165c-.063-.069.107.007-.179.084a2.487,2.487,0,0,0-.431,1.171c-.041.024-.015.116-.372.08a4.486,4.486,0,0,0-1.163,2.016c-.03.213-.411.411-.728.495a4.7,4.7,0,0,0-1.025,2.024,14.221,14.221,0,0,1-2.5,3.1c-2.492,1.092-4.635,2.065-6.786,2.976-.008-.062.117-.049-.12-.006a3.5,3.5,0,0,0-1.259.765c-.761.13-1.2.174-1.656-.2-.051-1.253-.087-2.089-.031-3.262a26.549,26.549,0,0,1,1.725-2.719,1.357,1.357,0,0,0,.267-.57c-.014-.108.182-.2.382-.355a3.25,3.25,0,0,0,.518-1.306,1.127,1.127,0,0,1,.554-.718,20.31,20.31,0,0,0,1.419-4.327,4.772,4.772,0,0,1,.566-1.827c.111-4.065-.029-7.817-.3-11.873a10.171,10.171,0,0,1-.227-1.82,1.775,1.775,0,0,0-.605-1.091,3.512,3.512,0,0,1-.311-1.215,9.126,9.126,0,0,0-1.008-1.616.884.884,0,0,1-.053-.2,1.939,1.939,0,0,0-.645-.975,3.818,3.818,0,0,1-.367-1.051,1.829,1.829,0,0,0-.789-.954,15.5,15.5,0,0,1-1.244-2.036,1.323,1.323,0,0,0-.85-.8c-.051-.006-.045-.108-.14-.3a1.568,1.568,0,0,0-1.049-.779,3.921,3.921,0,0,1-1-1.154,3.61,3.61,0,0,0-1.374-.794c-1.465-.6-2.575-1.1-3.78-1.706a1.483,1.483,0,0,0-.943-.3,2.981,2.981,0,0,1-1.089-.569,6.67,6.67,0,0,0-2.006-.321,1.365,1.365,0,0,1-.907-.428,21.228,21.228,0,0,0-4.969.291,6.575,6.575,0,0,1-1.854.114,9.974,9.974,0,0,0-2.106.741,3.585,3.585,0,0,1-1.19.195,8.619,8.619,0,0,0-1.853.957,55.183,55.183,0,0,1-6.011,3.03c-1.841-1.382-3.339-2.695-5.066-4.248a21.685,21.685,0,0,0-2.272-1.417c-4.276-.063-8.223.049-12.536.267a12,12,0,0,1-2.132.418,2.024,2.024,0,0,1-.893-.4c-.409-.289-.655-.2-1.144.276a13.993,13.993,0,0,1-2.741.206,27.622,27.622,0,0,0-2.949.945c-.023-.033.015.036-.178.066a2,2,0,0,0-1.071.735,50.837,50.837,0,0,1-6.791,4.225,23.014,23.014,0,0,0-4.022-1c-.023-.011-.026-.061-.109-.276a1.934,1.934,0,0,0-.881-.9c-.094-.1-.086-.38-.187-.713a5.626,5.626,0,0,0-2.126-1.111c-.214,0-.641-.036-.807-.3-1.068-.793-1.969-1.321-3.044-2.07a3.186,3.186,0,0,0-1.5-.526,3.018,3.018,0,0,1-1.526-.451c-1.1-.8-1.989-1.359-2.877-1.916,2.067-1.588,4.135-3.177,6.789-4.886a3.581,3.581,0,0,0,1.32-.871s-.008-.044.328-.077a7,7,0,0,0,1.53-1.381c9.7-5.912,19.37-11.871,29.112-17.71a76.547,76.547,0,0,1,10.026-4.858c2.033-.067,3.259-.113,4.484-.158a3.7,3.7,0,0,1,1.6.963,5.374,5.374,0,0,0,1.981,1.132s-.057.045.111.269a9.365,9.365,0,0,0,1.888.752c11.171,6.51,22.342,13.02,33.865,20.024a3.97,3.97,0,0,0,1.312.918c2.77,1.924,5.541,3.849,8.593,6.356a11.452,11.452,0,0,0,3.044,1.785s.069-.031.185.2a1.683,1.683,0,0,0,.839.774s.073.012.084.169A1.4,1.4,0,0,0,308.232,216.809Z" transform="translate(-34.881 -30.137)" fill="#00459b"/>
    <path id="Path_53" data-name="Path 53" d="M210.023,218.023a1.888,1.888,0,0,1,.818.3c.944.571,1.5.877,2.05,1.183a1.56,1.56,0,0,0,.141.614c.317.636.571.816.909.878,0,0,0,.05.057.369.356,1.088.658,1.857.956,3.071.1,4.322,1.176,8.915-5,7.863l-2.95-7.3a1.643,1.643,0,0,0-.073-.217,1.34,1.34,0,0,0-.854-.819c-.031,0-.016-.067-.1-.418-4.167-3.248-8.357-5.082-13.358-1.591a15.583,15.583,0,0,0-1.886,1.127,3.365,3.365,0,0,0-.989,1.124,19.528,19.528,0,0,0,.274,4.153,20.984,20.984,0,0,0,2.029,1.946,3.63,3.63,0,0,0,1.078.984,8.613,8.613,0,0,0,1.88.723c-.01,0-.015-.019.14.238a6.513,6.513,0,0,0,1.837.777c.017-.022-.006.028.173.272a9.258,9.258,0,0,0,1.877.69c-.025.017-.028-.044.178.227a15.1,15.1,0,0,0,2.813.785c-.021.012-.025-.036.15.218a10.825,10.825,0,0,0,1.885.727c-.036.039-.007-.063.162.22a7.517,7.517,0,0,0,2.2.8.721.721,0,0,1,.558.491,14.233,14.233,0,0,0,3.007,1.584c.029-.018-.017.036.12.3.781.707,1.426,1.147,2.023,1.6-.047.014-.055-.085.032.173a4.716,4.716,0,0,0,.941.818c-.046,0-.026-.091.065.214a16.156,16.156,0,0,0,2.289,2.064c1.245,4.144,2.21,8.076,3.1,12.333-2.957,11.134-9.612,15.1-23.772,14.456-6.052.718-10.641-1.979-14.773-6.878a34.838,34.838,0,0,1-1.07-4.307c.73-3.25,1.428-6.047,2.3-8.89a3.944,3.944,0,0,1,.965.023c2.987-.175,3.844,1.024,3.841,3.525a31.941,31.941,0,0,0,.986,5.522c-.031,0,.014-.043.015.266a10.96,10.96,0,0,0,1.009,1.724c-.034.012-.012-.058.071.172a3.313,3.313,0,0,0,.985,1.168c1.432.8,2.68,1.311,4.209,2.06a61.93,61.93,0,0,0,6.683-.39c0,.016-.031,0,.272,0a7.983,7.983,0,0,0,1.736-.973c-.01-.015.012.015.333-.022a9.4,9.4,0,0,0,1.669-1.98c-.014-.011.017,0,.28-.237a29.55,29.55,0,0,0-.3-4.786c.017,0,.012.034-.024-.325-1.954-1.477-3.872-2.6-5.967-3.98a18.782,18.782,0,0,1-2.044-1.23,15.9,15.9,0,0,0-2.992-1.433c.028-.017.034.048-.163-.225a12.781,12.781,0,0,0-2.794-.809,1.959,1.959,0,0,0-.1-.23,5.825,5.825,0,0,0-.937-.744c.032-.006.018.057-.112-.246a22.705,22.705,0,0,0-2.879-1.749c.027-.013.01.045-.1-.247a15.06,15.06,0,0,0-2.324-1.838,7.871,7.871,0,0,1-1.594-2.1,13.771,13.771,0,0,0-1.043-1.795c.054-.026-.026.064-.016-.248a11.636,11.636,0,0,0-.957-1.777c.038-.015,0,.054.019-.414.023-4.525.023-8.582.023-12.639,0,0,.024.038.254-.125a8.912,8.912,0,0,0,.772-1.835s-.006,0,.223-.108a4.188,4.188,0,0,0,.743-.959s.022.061.23-.05a5.348,5.348,0,0,0,.769-.957s.023.063.247-.075a5.5,5.5,0,0,0,.744-1.149,30.693,30.693,0,0,1,4.959-2.687C196.577,215.146,203.328,216.035,210.023,218.023Z" transform="translate(-34.881 -30.137)" fill="#a067ca"/>
    <path id="Path_54" data-name="Path 54" d="M308.631,240.984c.46-.465.921-.93,1.555-1.673,3.034-3.434,5.613-6.934,8.873-9.6,1.624-1.329,4.487-1.274,6.819-1.443.293-.021.764,2.427,1.047,4.492C324,239.3,321.18,245.08,318.1,251.119a14.227,14.227,0,0,1-4.783,1.488c-.185-1.256-.282-2.1-.348-3.014a1.075,1.075,0,0,1,.261-.511c1.725-3.753,3.2-7.211,4.681-10.67l-1.407-.853c-1.786,2.524-3.572,5.048-5.39,7.529-.033-.043-.009.062-.285.176a6.731,6.731,0,0,0-.809,1.717c-.024,0,0-.047-.284.14-3.243,4.217-6.205,8.247-9.549,12.8,2.772.314,4.71.534,6.943.9,1.064.44,1.832.732,2.991,1.113l8.7,1.977c.847.907,1.694,1.813,2.857,2.9.317.18.386.185-.092.147a4.341,4.341,0,0,0-.85,1.831c-3.213,3.817-7.107,3.508-11.45,2.606-8.183-2.352-15.978-5.136-24.078-1.1-.646.322-2.227.168-2.375-.184a3.9,3.9,0,0,1-.151-3.032,69.292,69.292,0,0,1,4.362-5.926c.44-.044.88-.088,1.908-.182a2.441,2.441,0,0,0,1.229-.844s-.125-.013.29.011c2.7-.626,6.106,1.009,6.727-3.057.715-.9,1.43-1.791,2.432-3.1.545-.936.8-1.462,1.063-1.989a2.83,2.83,0,0,0,.691-.536c.62-.844.93-1.349,1.24-1.855,0,0-.026-.092.232-.25a2.886,2.886,0,0,0,.5-1.114s-.17-.076.14-.149a8.8,8.8,0,0,0,1.276-2.092c.4-.365.8-.73,1.581-1.473C307.367,243.09,308,242.037,308.631,240.984Z" transform="translate(-34.881 -30.137)" fill="#f1f217"/>
    <path id="Path_55" data-name="Path 55" d="M181.767,250.909a7.294,7.294,0,0,0-.951,0c-5.172,2.559-2.568,6.1-1.9,9.359.3,1.07.593,2.14.978,3.538a46.948,46.948,0,0,1-4.913-1.831c-2.325-7.353-4.273-14.654-6.264-22.35a59.988,59.988,0,0,1,9.019-7.528,29.9,29.9,0,0,1,2.2,5.973s.042-.069,0,.257a7.053,7.053,0,0,0,.953,1.778s.08-.09.039.248a7.091,7.091,0,0,0,1.03,1.807c.454.546.909,1.092,1.709,2.163a7.01,7.01,0,0,1,.888,2.384,10.032,10.032,0,0,1-.4,3.261A22.133,22.133,0,0,0,181.767,250.909Z" transform="translate(-34.881 -30.137)" fill="#11478f"/>
    <path id="Path_56" data-name="Path 56" d="M318.361,250.86c2.819-5.78,5.639-11.56,8.585-17.679a6.4,6.4,0,0,1,2.9,1.409c-2,5.509-4.051,10.783-6.361,15.941-.561,1.252-1.971,2.124-3.461,3.048A10,10,0,0,1,318.361,250.86Z" transform="translate(-34.881 -30.137)" fill="#284666"/>
    <path id="Path_57" data-name="Path 57" d="M209.857,217.758c-6.529-1.723-13.28-2.612-20.617-.774a63.932,63.932,0,0,1,9.6-2.685c2.143.37,3.649.514,5.155.659a14.67,14.67,0,0,1,1.5.417c.8.3,1.146.416,1.492.534A29.271,29.271,0,0,1,209.857,217.758Z" transform="translate(-34.881 -30.137)" fill="#8884ac"/>
    <path id="Path_58" data-name="Path 58" d="M179.958,237.6c-.581-1.48-1.139-3.428-1.939-5.686a33.741,33.741,0,0,1,1.728-6.686C179.981,229.018,179.981,233.075,179.958,237.6Z" transform="translate(-34.881 -30.137)" fill="#8884ac"/>
    <path id="Path_59" data-name="Path 59" d="M356.747,231.179a.83.83,0,0,1-.014-1.1,15.62,15.62,0,0,1,4.256,1.576A15.216,15.216,0,0,1,356.747,231.179Z" transform="translate(-34.881 -30.137)" fill="#a1a376"/>
    <path id="Path_60" data-name="Path 60" d="M203.783,214.711a14.638,14.638,0,0,1-4.557-.467,2.518,2.518,0,0,1,1.4-1.389A14.965,14.965,0,0,1,203.783,214.711Z" transform="translate(-34.881 -30.137)" fill="#094797"/>
    <path id="Path_61" data-name="Path 61" d="M306.738,214.8a6.946,6.946,0,0,1-2.676-1.268A6.961,6.961,0,0,1,306.738,214.8Z" transform="translate(-34.881 -30.137)" fill="#094797"/>
    <path id="Path_62" data-name="Path 62" d="M254.234,182.576a13.731,13.731,0,0,1-3.873.4A13.657,13.657,0,0,1,254.234,182.576Z" transform="translate(-34.881 -30.137)" fill="#094797"/>
    <path id="Path_63" data-name="Path 63" d="M257.907,184.7a2.781,2.781,0,0,1-1.7-.663A2.779,2.779,0,0,1,257.907,184.7Z" transform="translate(-34.881 -30.137)" fill="#094797"/>
    <path id="Path_64" data-name="Path 64" d="M259.894,185.729a2.83,2.83,0,0,1-1.7-.548A2.837,2.837,0,0,1,259.894,185.729Z" transform="translate(-34.881 -30.137)" fill="#094797"/>
    <path id="Path_65" data-name="Path 65" d="M210.591,205.683a3.109,3.109,0,0,1-1.231,1.292C209.464,206.61,209.886,206.2,210.591,205.683Z" transform="translate(-34.881 -30.137)" fill="#094797"/>
    <path id="Path_66" data-name="Path 66" d="M180.754,223.163a2.679,2.679,0,0,1-.542,1.672A2.681,2.681,0,0,1,180.754,223.163Z" transform="translate(-34.881 -30.137)" fill="#8884ac"/>
    <path id="Path_67" data-name="Path 67" d="M307.885,215.775c-.26.143-.5-.037-.805-.48C307.263,215.238,307.559,215.378,307.885,215.775Z" transform="translate(-34.881 -30.137)" fill="#094797"/>
    <path id="Path_68" data-name="Path 68" d="M309.744,236.736c-.38.055-.466-.19-.215-.6C309.642,236.041,309.814,236.5,309.744,236.736Z" transform="translate(-34.881 -30.137)" fill="#094797"/>
    <path id="Path_69" data-name="Path 69" d="M208.741,207.074c.029.213-.216.463-.718.78C208,207.651,208.233,207.38,208.741,207.074Z" transform="translate(-34.881 -30.137)" fill="#094797"/>
    <path id="Path_70" data-name="Path 70" d="M295.125,206.667c-.191.1-.511-.038-.985-.4C294.323,206.175,294.659,206.3,295.125,206.667Z" transform="translate(-34.881 -30.137)" fill="#094797"/>
    <path id="Path_71" data-name="Path 71" d="M181.726,222.018c.076.2-.1.484-.5.878C181.161,222.705,181.319,222.4,181.726,222.018Z" transform="translate(-34.881 -30.137)" fill="#8884ac"/>
    <path id="Path_72" data-name="Path 72" d="M182.713,221c.072.209-.115.491-.541.875C182.107,221.675,182.28,221.374,182.713,221Z" transform="translate(-34.881 -30.137)" fill="#8884ac"/>
    <path id="Path_73" data-name="Path 73" d="M183.718,219.852c.071.188-.1.525-.532.994C183.11,220.653,183.291,220.327,183.718,219.852Z" transform="translate(-34.881 -30.137)" fill="#8884ac"/>
    <path id="Path_74" data-name="Path 74" d="M308.9,223.742c-.427.073-.53-.182-.239-.62C308.848,223.181,308.9,223.339,308.9,223.742Z" transform="translate(-34.881 -30.137)" fill="#094797"/>
    <path id="Path_75" data-name="Path 75" d="M308.346,216.676c-.212,0-.286-.156-.362-.442C308.227,216.137,308.395,216.281,308.346,216.676Z" transform="translate(-34.881 -30.137)" fill="#094797"/>
    <path id="Path_76" data-name="Path 76" d="M293.923,339.625c-5.3,15.4-12.921,29-26.005,39.017-9.589,7.341-23.592,6.7-32.9-.866-11.651-9.47-18.03-22.263-24.438-35.572-3.434-11.117-6.688-21.968-9.872-32.839a21.571,21.571,0,0,1-.744-5.67c4.245.968,4.613-3.3,6.894-4.589,1.537.958,3.075,1.916,5.187,3.257,1.625.793,2.675,1.2,3.725,1.612q10.8,6.57,21.611,13.139c.7.427,1.421.829,2.805,1.636L219.471,326.5c.728,2.96,1.39,5.654,2.242,9.121,2.768-.79,5.262-1.375,7.665-2.22a58.863,58.863,0,0,0,9.255-3.694c8.434-4.707,16.353-5.332,25.534-.849C273.495,333.413,283.826,335.911,293.923,339.625Z" transform="translate(-34.881 -30.137)" fill="#03469b"/>
    <path id="Path_77" data-name="Path 77" d="M151.748,259.314c2.657-.414,5.338-1.535,6.443,2.43,2.388,8.568,2.549,8.523,12.3,8.663,5.045,4.05,10.084,7.651,14.081,12.173,2.054,2.323,2.246,6.29,3.333,10.153.052.827.051,1.017-.219,1.432-3.791,7.149-3.31,8.9,2.181,9.143.926,4.714,1.745,9.452,2.81,14.134s2.38,9.326,3.759,14.655c-16.036,2.7-31.7,4.076-47.135-2.3-11.486-4.748-17-13.239-16.146-26.076a29.825,29.825,0,0,1,4.4-1.969l-2.5-1.014c.288-3.05.513-5.438.739-7.826-1.33-4.87,1.489-8.791,3.482-12.6,3.719-7.1,8.192-13.811,12.474-21m9.819,47.909c1.311-1.661,2.679-3.281,3.92-4.992,2.119-2.92,1.119-8.8-1.3-8.3a9.593,9.593,0,0,0-5.793,3.984c-.83,1.416.344,4.005.626,6.072l.971-.167q-1.108,2.472-2.218,4.944l.845.512a33,33,0,0,0,2.951-2.056m-16.746-10.191c-3.705,4.048,1.951,3.828,2.671,5.858,1.558-.589,4.068-.81,4.468-1.846.728-1.889.207-4.261.207-6.894A64.75,64.75,0,0,0,144.821,297.032Z" transform="translate(-34.881 -30.137)" fill="#054698"/>
    <path id="Path_78" data-name="Path 78" d="M287.033,260.729c-1.465,2.378-3.092,4.25-4.347,6.344a3.9,3.9,0,0,0,.151,3.032c.148.352,1.729.506,2.375.184,8.1-4.033,15.895-1.249,23.845,1.513.189,5.351-1.447,8.944-6.027,11.185-2.43,1.188-4.4,3.315-6.749,5.036a11.735,11.735,0,0,0-1.391.877c-3.4,2.272-6.794,4.544-10.605,6.612-1.732-.56-3.444-1.62-4.3-1.143-2.807,1.57-6.049,3.171-5.37,7.4-6.162,3.253-12.417,6.346-18.446,9.829a7.055,7.055,0,0,1-7.861.075c-5.74-3.249-11.621-6.247-17.733-9.753-1.079-1.2-1.868-2-2.7-2.837l4.855-7.333c-4.875.3-7.772,2.118-7.935,6.486a27.111,27.111,0,0,1-4.541-2.463,27.268,27.268,0,0,1,.381-5.017l-5.446,1.943c-5.247-3.717-10.674-7.213-15.649-11.264-1.9-1.549-2.769-4.368-3.592-7.028,5.79-1.4,11.292-1.756,16.256-3.577,3.246-1.19,5.714-4.5,8.547-6.466-.238,2.054-.493,3.712-.957,6.73,3.392-1.021,5.683-1.711,8.271-2.256,1.164.723,2.033,1.3,3.148,2.123,7.116,5.112,13.984,9.98,21.2,14.924a12.509,12.509,0,0,0,3.752-1.857Q271.58,270.968,286.91,257.8c.036.835.072,1.671.123,2.924m-44.924,36.01c-3.241-1.251-3.342.688-3.1,3.739a4.3,4.3,0,0,0,.337,1.261c2.69,1.294,4.194.545,4.422-3.2a13.812,13.812,0,0,0-1.655-1.8m7.143.085c.757,5.363,2.147,6.616,4.415,5.617.989-3.082,1.67-5.2,2.352-7.326q-.338-.678-.674-1.354A29.421,29.421,0,0,0,249.252,296.824Z" transform="translate(-34.881 -30.137)" fill="#094797"/>
    <path id="Path_79" data-name="Path 79" d="M220.737,263.969c-2.816,2.361-5.284,5.673-8.53,6.863-4.964,1.821-10.466,2.179-16.231,3.165a5.392,5.392,0,0,1-1.152-2.691c14.12.337,20.775-3.631,23.8-14.432a29.931,29.931,0,0,1,2.427,4.606C220.938,262.55,220.838,263.259,220.737,263.969Z" transform="translate(-34.881 -30.137)" fill="#11356a"/>
    <path id="Path_80" data-name="Path 80" d="M206.688,298.975c-2.111,1.421-2.479,5.688-6.82,4.258-1.463-7.739-.822-8.559,6.65-8.815A41.92,41.92,0,0,0,206.688,298.975Z" transform="translate(-34.881 -30.137)" fill="#dab42d"/>
    <path id="Path_81" data-name="Path 81" d="M189.995,303.046c-5.621.019-6.1-1.732-2.051-8.665a10.511,10.511,0,0,1,1.83,3.52l3.05-1.8C193.789,299.08,192.684,301.225,189.995,303.046Z" transform="translate(-34.881 -30.137)" fill="#e5bb26"/>
    <path id="Path_82" data-name="Path 82" d="M192.793,295.71a12.713,12.713,0,0,1-3.019,2.191,32.835,32.835,0,0,0-1.562-3.746,1.2,1.2,0,0,1-.182-1.059c2.171-2.382,4.268-4.489,6.365-6.6l1.673,1.032C194.966,290.128,193.864,292.725,192.793,295.71Z" transform="translate(-34.881 -30.137)" fill="#f2c94a"/>
    <path id="Path_83" data-name="Path 83" d="M215.977,303.72a9.464,9.464,0,0,1-3.5-1.214,25.047,25.047,0,0,1,2.583-6.082,10.947,10.947,0,0,1,3.119-.287c-.736,1-1.471,2.006-2.6,3.543h4.954C218.514,301.437,217.349,302.451,215.977,303.72Z" transform="translate(-34.881 -30.137)" fill="#f2c94a"/>
    <path id="Path_84" data-name="Path 84" d="M135.5,293.089a63.624,63.624,0,0,1-.446,7.644l2.5,1.014c-1.676.643-2.825,1.084-4.374,1.536C130.421,299.187,132.733,296.21,135.5,293.089Z" transform="translate(-34.881 -30.137)" fill="#e5bb26"/>
    <path id="Path_85" data-name="Path 85" d="M218.464,296.137c-1.151-.019-2.013-.039-3.308-.033a5.33,5.33,0,0,1-.169-3.186c1.833-.8,3.461-1.379,5.651-2.16-.246,1.763-.437,3.136-.687,4.873A2.04,2.04,0,0,1,218.464,296.137Z" transform="translate(-34.881 -30.137)" fill="#e5bb26"/>
    <path id="Path_86" data-name="Path 86" d="M152.063,239.046c1.136,4.081,2.271,8.163,3.573,12.844a58.877,58.877,0,0,1-8.02-.353,36.371,36.371,0,0,1,.253-7.028c.069-2.115.109-3.81.15-5.506,0,0-.018,0,.278-.222a19.8,19.8,0,0,0,.667-3.814s.033.036.385.007c.848-.065,1.346-.1,1.843-.137,0,0-.078.007-.13.383A36.186,36.186,0,0,0,152.063,239.046Z" transform="translate(-34.881 -30.137)" fill="#e6e2e3"/>
    <path id="Path_87" data-name="Path 87" d="M147.84,244.928c-.217,2.086-.435,4.171-.661,6.594-2.15.789-3.607.547-2.677-2.226a38.839,38.839,0,0,1,1.763-4.752A3.016,3.016,0,0,1,147.84,244.928Z" transform="translate(-34.881 -30.137)" fill="#585b7c"/>
    <path id="Path_88" data-name="Path 88" d="M151.269,234.486a3.421,3.421,0,0,1-1.942.475,15.3,15.3,0,0,1,.113-4.123l.972-.1A32.163,32.163,0,0,1,151.269,234.486Z" transform="translate(-34.881 -30.137)" fill="#b79b9d"/>
    <path id="Path_89" data-name="Path 89" d="M147.869,244.509c-.436.22-.844.021-1.444-.307a21.323,21.323,0,0,1,1.331-4.982A30.448,30.448,0,0,1,147.869,244.509Z" transform="translate(-34.881 -30.137)" fill="#b79b9d"/>
    <path id="Path_90" data-name="Path 90" d="M152.229,238.811a11.217,11.217,0,0,1-1.134-3.57A11.167,11.167,0,0,1,152.229,238.811Z" transform="translate(-34.881 -30.137)" fill="#b79b9d"/>
    <path id="Path_91" data-name="Path 91" d="M148.707,235.218a8.792,8.792,0,0,1-.4,3.568A8.791,8.791,0,0,1,148.707,235.218Z" transform="translate(-34.881 -30.137)" fill="#b79b9d"/>
    <path id="Path_92" data-name="Path 92" d="M338.053,271.97c0,3.491-.536,7.094.152,10.445.828,4.038,4.281,5.165,6.821,2.079,3.462-4.2,5.985-9.2,8.769-13.936a36.425,36.425,0,0,0,2.062-5.066A50.5,50.5,0,0,1,359.932,270a2.626,2.626,0,0,0,1.063,1.07s-.011-.069-.045-.065c2.372,5.395,5.379,10.61,7.026,16.224,1.895,6.459,3.623,13.278,3.575,19.927-.089,12.552-8.022,19.653-19.254,23.826-10.461,3.886-21.268,3.932-32.035,2.836-19.124-1.947-37.394-7.355-55.679-15.033,8.959-5.4,17.385-10.473,26.5-15.6a44.883,44.883,0,0,0,6.027-3.953,16.74,16.74,0,0,1,4.835-1.907c.989,2.335,1.894,4.241,2.69,6.543-.358,2-.608,3.6-.918,5.587l9.577,2.007c1.36-7.961,2.5-15.316,3.934-22.612.455-2.309,1.169-4.994,2.717-6.577a115.173,115.173,0,0,1,12.377-10.391c2.2.028,3.97.054,5.734.081m18.989,28.076c-.114-.127-.228-.254.106-.943q1.7-2.078,3.392-4.154l-1.34-1.14a6.844,6.844,0,0,0-6.435,6.017c-.183,1.058,1.313,3.456,1.8,3.393a25.446,25.446,0,0,0,5.576-1.943q-.261-.619-.523-1.238a5.545,5.545,0,0,1-2.576.008m-10.048.592q-.309-1.215-.617-2.431c1.758-1.244.283-3.029-2.027-4.378,1.293-2.31,2.472-4.416,4.137-7.388-6.37,2.555-11.354,10.959-10.27,16.809a78.891,78.891,0,0,0,8.777-2.612m-13-7.462c-.518-.727-1.164-2.146-1.535-2.077-5.427,1.007-8.043,7.6-5.01,12.882l3.733-2.6-1.389-.627c.257-1.356.19-2.908.86-4.014C331.346,295.589,332.754,294.869,333.989,293.176Z" transform="translate(-34.881 -30.137)" fill="#064797"/>
    <path id="Path_93" data-name="Path 93" d="M274.894,301.982c-.955-4.442,2.287-6.043,5.094-7.613.853-.477,2.565.583,4.01,1.32.021,1.821-.084,3.261-.189,4.7C282.3,305.232,278.587,302.809,274.894,301.982Z" transform="translate(-34.881 -30.137)" fill="#e7bd30"/>
    <path id="Path_94" data-name="Path 94" d="M296.884,299.445a45.956,45.956,0,0,1-5.506,3.578c.828-4.478,2.045-8.834,3.387-13.657a2.264,2.264,0,0,1,1.861-1.15c3.654,5.426-3.008,7.828-3.362,12.57Z" transform="translate(-34.881 -30.137)" fill="#eac237"/>
    <path id="Path_95" data-name="Path 95" d="M224.768,298.633c.193-4.763,3.09-6.578,7.965-6.881l-4.855,7.333a20.377,20.377,0,0,1,2.384,2.724,36.315,36.315,0,0,1-5.032,2.451C225.026,302.085,224.882,300.556,224.768,298.633Z" transform="translate(-34.881 -30.137)" fill="#e7bd30"/>
    <path id="Path_96" data-name="Path 96" d="M297.107,299.239c-1.273.6-2.323.984-3.843,1.547.354-4.742,7.016-7.144,3.534-12.588,1.832-1.9,3.8-4.023,6.232-5.211,4.58-2.241,6.216-5.834,6.379-11,4.224.309,8.118.618,11.668-3.349a3.787,3.787,0,0,0,.991-1.643s-.069-.005-.075.029a30.325,30.325,0,0,0,3.129-2.628c1.22,1.629,2.315,3.574,3.9,5.884,1.281.779,2.066,1.194,2.852,1.609-4.015,3.429-8.26,6.633-11.936,10.393-1.548,1.583-2.262,4.268-2.717,6.577-1.438,7.3-2.574,14.651-3.934,22.612l-9.577-2.007a34.046,34.046,0,0,1,1.23-5.674c1.285-1.155,2.15-1.828,3.138-2.6-2.165-1.315-4.4-1.921-1.485-4.763,1.746-1.7,2.177-4.754,3.2-7.2l-1.937-.951-6,8.625C300.349,297.613,298.839,298.323,297.107,299.239Z" transform="translate(-34.881 -30.137)" fill="#eef0f0"/>
    <path id="Path_97" data-name="Path 97" d="M346.887,242.059c2.119-2.375,4.238-4.751,6.707-7.119-.629,11.851-14.524,28.748-23.513,27.274,3.057-3.739,5.725-7,8.9-10.706C341.958,248.066,344.422,245.063,346.887,242.059Z" transform="translate(-34.881 -30.137)" fill="#e4e6e5"/>
    <path id="Path_98" data-name="Path 98" d="M346.385,278.25c-2.25,2.611-3.2,1.042-3.142-.845.111-3.342.758-6.666,1.184-10.022C349.878,268.46,350.226,271.107,346.385,278.25Z" transform="translate(-34.881 -30.137)" fill="#36536b"/>
    <path id="Path_99" data-name="Path 99" d="M332.319,271.889a11.326,11.326,0,0,1-2.964-1.474c3.963-2.162,8.092-4.1,12.86-6.331-1.227,2.469-2.45,4.93-3.917,7.638A46.9,46.9,0,0,1,332.319,271.889Z" transform="translate(-34.881 -30.137)" fill="#586762"/>
    <path id="Path_100" data-name="Path 100" d="M346.629,241.916c-2.207,3.147-4.671,6.15-7.413,9.384-1.017-1.209-1.755-2.649-2.834-4.251a3.513,3.513,0,0,1-.037-2.59c4.879,3.279,6.311-.257,7.857-3.538C344.925,241.2,345.648,241.488,346.629,241.916Z" transform="translate(-34.881 -30.137)" fill="#284b70"/>
    <path id="Path_101" data-name="Path 101" d="M354.657,249.085c.136.243-.042.61-.454,1.188C354.094,250.059,354.219,249.634,354.657,249.085Z" transform="translate(-34.881 -30.137)" fill="#a1a376"/>
    <path id="Path_102" data-name="Path 102" d="M360.955,270.831c-.24.089-.521-.066-.811-.512C360.483,270.09,360.743,270.277,360.955,270.831Z" transform="translate(-34.881 -30.137)" fill="#eff2f4"/>
    <path id="Path_103" data-name="Path 103" d="M296.014,406.72c-16.028.223-32.07.258-48.585.307a96.442,96.442,0,0,1,10.428-1.068c12.393-.106,24.789.014,37.643.122A.6.6,0,0,1,296.014,406.72Z" transform="translate(-34.881 -30.137)" fill="#b0bbf7"/>
    <path id="Path_104" data-name="Path 104" d="M394.22,299.369a1.63,1.63,0,0,1-1.1.47,1.709,1.709,0,0,1,.256-1.016C393.776,298.806,393.915,298.958,394.22,299.369Z" transform="translate(-34.881 -30.137)" fill="#02469b"/>
    <path id="Path_105" data-name="Path 105" d="M226.534,401.55a2.629,2.629,0,0,1,1.25,1.115,4.684,4.684,0,0,1-1.888-.1C225.894,402.131,226.071,401.958,226.534,401.55Z" transform="translate(-34.881 -30.137)" fill="#02469b"/>
    <path id="Path_106" data-name="Path 106" d="M318.1,251.119a8.366,8.366,0,0,1,1.59,2.6c-.1,3.322-.352,6.379-.734,9.813a33.3,33.3,0,0,1-8.824-2.037,46.315,46.315,0,0,1-.292-8.026c.12-2.463.149-4.5.178-6.536,0,0-.022.044.3-.022a4.576,4.576,0,0,0,.783-1.762s-.024-.1.344.058a22.832,22.832,0,0,1,1.534,4.169s.018.148-.248.485a10.522,10.522,0,0,0,.67,3.156C314.888,252.472,316.367,251.925,318.1,251.119Z" transform="translate(-34.881 -30.137)" fill="#e6e9ea"/>
    <path id="Path_107" data-name="Path 107" d="M344.087,240.585c-1.431,3.617-2.863,7.153-7.679,3.5C337.973,237.826,340.265,236.766,344.087,240.585Z" transform="translate(-34.881 -30.137)" fill="#dddf2b"/>
    <path id="Path_108" data-name="Path 108" d="M287,257.467c-10.333,9.088-20.56,17.855-30.837,26.563a6.439,6.439,0,0,1-3.779,1.408A61.531,61.531,0,0,1,252.509,273c3.422-.007,6.383.008,9.344-.012,5.61-.037,5.924-.5,4.115-6.4-.3-1.511-.611-2.629-.9-3.752-3.411-13.321-6.82-26.642-10.064-40.191.477-.68.789-1.134,1.1-1.588,1.8-.965,3.593-1.93,5.933-3.072a14.117,14.117,0,0,0,1.848-.991c.214-.013.429-.026,1.208-.132a15.275,15.275,0,0,0,2.116-.769c.426,0,.852,0,1.97-.079,2.062-.094,3.431-.1,4.8-.109a7.051,7.051,0,0,0,.877.358,18.782,18.782,0,0,0,2,.317c.187.118.373.235.946.553.386.2.674.359.674.359l.306-.121c1.11.506,2.22,1.011,3.8,1.844a15.66,15.66,0,0,0,1.378.79,12.294,12.294,0,0,0,.942,1.142c.5.579.75.731,1.079.757a.941.941,0,0,0,.093.346c.279.541.541.719.883.779.313.533.626,1.066,1.163,2.024.33.712.534.882.836.933.045.2.09.408.291,1.058.235.729.419.9.707.956a.993.993,0,0,1,.02.315,7.646,7.646,0,0,0,1.027,1.619c.04.215.08.431.265,1.124.214.759.381.962.643,1.086.027.441.053.881.178,2.079.1,4.415.094,8.075.092,11.734-.112.4-.224.8-.548,1.752-.635,1.79-1.058,3.03-1.482,4.27,0,0-.258.328-.475.68a8.072,8.072,0,0,0-.5,1.317,1.307,1.307,0,0,0-.321.221c-.312.267-.34.433-.208.625C288.13,255.592,287.612,256.36,287,257.467Z" transform="translate(-34.881 -30.137)" fill="#c40221"/>
    <path id="Path_109" data-name="Path 109" d="M220.754,264.366a12.62,12.62,0,0,1,.574-3.118c3.282-10.53,6.37-20.44,9.223-30.417,1.39-4.862,2.339-9.849,3.488-14.78a12.006,12.006,0,0,1,2.267-.327c4.672-.057,8.56-.142,12.448-.226a5.961,5.961,0,0,1,1.926,1.649c.661,2.723,1.11,4.8,1.659,7.23,4.263,15.127,8.425,29.9,12.48,45.053a153.947,153.947,0,0,1-15.931,1.328,50.37,50.37,0,0,1-3.018-7.235,15.665,15.665,0,0,0-.882-2.531c0,.011.019.024-.037-.386-.144-.549-.2-.766-.326-.812-9.866-3.708-14.916-1.037-16.853,8.9l-7.975,2.4c.464-3.018.719-4.676.957-6.73m19.11-25.152q-.958-3.206-1.915-6.412l-.843.077-4.726,18.97a41.613,41.613,0,0,0,9.671-1.573C241.322,246.832,240.593,243.389,239.864,239.214Z" transform="translate(-34.881 -30.137)" fill="#a068c3"/>
    <path id="Path_110" data-name="Path 110" d="M233.756,216.009a143.213,143.213,0,0,1-3.205,14.822c-2.853,9.977-5.941,19.887-9.208,30.056a18.365,18.365,0,0,1-2.646-4.337c-1.035-4.266-2-8.2-3.331-12.661a20.584,20.584,0,0,0-2.294-2.05s-.02.091-.033-.186a2.558,2.558,0,0,0-.969-.8s.008.1.051-.287c-.067-1.345-.179-2.305-.186-3.718a13.074,13.074,0,0,1,1.016-3.281c6.034-1.67,2.293-5.98,3.188-9.195.886-.777,1.483-1.387,2.08-2,2.091-1.443,4.181-2.885,6.773-4.524.821-.264,1-.46,1.052-.783,0,0-.038-.069.335,0a18.061,18.061,0,0,0,2.971-.937c.683-.039,1.366-.078,2.6-.164a3.8,3.8,0,0,0,1-.233A4.541,4.541,0,0,0,233.756,216.009Z" transform="translate(-34.881 -30.137)" fill="#ec3409"/>
    <path id="Path_111" data-name="Path 111" d="M252.238,224.025c-.448-2.077-.9-4.155-1.329-6.638,1.514.907,3.012,2.22,4.853,3.6.032.523-.28.977-1.044,1.681C253.589,223.288,252.914,223.657,252.238,224.025Z" transform="translate(-34.881 -30.137)" fill="#094797"/>
    <path id="Path_112" data-name="Path 112" d="M248.424,215.324c-3.558.258-7.446.343-11.752.293C240.2,215.373,244.148,215.261,248.424,215.324Z" transform="translate(-34.881 -30.137)" fill="#094797"/>
    <path id="Path_113" data-name="Path 113" d="M292.433,245.645c-.248-3.346-.246-7.006-.206-11.117C292.4,237.828,292.544,241.58,292.433,245.645Z" transform="translate(-34.881 -30.137)" fill="#094797"/>
    <path id="Path_114" data-name="Path 114" d="M217.989,222.059a4.108,4.108,0,0,1-2.059,2.152,2.512,2.512,0,0,1-.972-.221c-.3-.769-.6-1.538-.937-2.616A9.506,9.506,0,0,1,217.989,222.059Z" transform="translate(-34.881 -30.137)" fill="#094797"/>
    <path id="Path_115" data-name="Path 115" d="M296.854,257.194c-.273,3.947-3.676,2.312-6.371,3C292.219,259.259,294.362,258.286,296.854,257.194Z" transform="translate(-34.881 -30.137)" fill="#094797"/>
    <path id="Path_116" data-name="Path 116" d="M308.3,241.05a10.092,10.092,0,0,1-1.863,3.206A10.1,10.1,0,0,1,308.3,241.05Z" transform="translate(-34.881 -30.137)" fill="#094797"/>
    <path id="Path_117" data-name="Path 117" d="M273.745,215.661a17.908,17.908,0,0,1-4.277.205A17.912,17.912,0,0,1,273.745,215.661Z" transform="translate(-34.881 -30.137)" fill="#094797"/>
    <path id="Path_118" data-name="Path 118" d="M290.448,251.8a13.9,13.9,0,0,1,1.208-3.776A13.913,13.913,0,0,1,290.448,251.8Z" transform="translate(-34.881 -30.137)" fill="#094797"/>
    <path id="Path_119" data-name="Path 119" d="M228.978,216.088A7.388,7.388,0,0,1,226.4,217.1,7.379,7.379,0,0,1,228.978,216.088Z" transform="translate(-34.881 -30.137)" fill="#094797"/>
    <path id="Path_120" data-name="Path 120" d="M304.459,246.062a3.967,3.967,0,0,1-.9,2.092A3.976,3.976,0,0,1,304.459,246.062Z" transform="translate(-34.881 -30.137)" fill="#094797"/>
    <path id="Path_121" data-name="Path 121" d="M212.79,219.17a2.976,2.976,0,0,1-1.735-.847A2.982,2.982,0,0,1,212.79,219.17Z" transform="translate(-34.881 -30.137)" fill="#094797"/>
    <path id="Path_122" data-name="Path 122" d="M263.626,217a2.633,2.633,0,0,1-1.31.779A2.633,2.633,0,0,1,263.626,217Z" transform="translate(-34.881 -30.137)" fill="#094797"/>
    <path id="Path_123" data-name="Path 123" d="M276.658,216.41a2.7,2.7,0,0,1-1.561-.179A2.7,2.7,0,0,1,276.658,216.41Z" transform="translate(-34.881 -30.137)" fill="#094797"/>
    <path id="Path_124" data-name="Path 124" d="M266.922,216.066a3.034,3.034,0,0,1-1.541.649A3.038,3.038,0,0,1,266.922,216.066Z" transform="translate(-34.881 -30.137)" fill="#094797"/>
    <path id="Path_125" data-name="Path 125" d="M300.38,252.073a2.31,2.31,0,0,1-.739,1.614A2.311,2.311,0,0,1,300.38,252.073Z" transform="translate(-34.881 -30.137)" fill="#094797"/>
    <path id="Path_126" data-name="Path 126" d="M290.986,229.646a2.681,2.681,0,0,1-1.006-1.317A2.687,2.687,0,0,1,290.986,229.646Z" transform="translate(-34.881 -30.137)" fill="#094797"/>
    <path id="Path_127" data-name="Path 127" d="M302.271,249.562a2.292,2.292,0,0,1-.854,1.678A2.292,2.292,0,0,1,302.271,249.562Z" transform="translate(-34.881 -30.137)" fill="#094797"/>
    <path id="Path_128" data-name="Path 128" d="M232.863,215.606c.087.129-.366.315-.6.229C232.208,215.407,232.454,215.317,232.863,215.606Z" transform="translate(-34.881 -30.137)" fill="#094797"/>
    <path id="Path_129" data-name="Path 129" d="M206.813,215.688c-.172.1-.519-.014-1.051-.345C205.931,215.242,206.285,215.355,206.813,215.688Z" transform="translate(-34.881 -30.137)" fill="#094797"/>
    <path id="Path_130" data-name="Path 130" d="M303.074,248.311c.2.242.124.561-.173,1.013C302.719,249.1,302.754,248.745,303.074,248.311Z" transform="translate(-34.881 -30.137)" fill="#094797"/>
    <path id="Path_131" data-name="Path 131" d="M291.9,231.952c-.251.069-.418-.134-.461-.613C291.693,231.29,291.834,231.5,291.9,231.952Z" transform="translate(-34.881 -30.137)" fill="#094797"/>
    <path id="Path_132" data-name="Path 132" d="M278.69,217.276c.1.1-.211.217-.211.217s-.288-.158-.346-.314C278.263,217.027,278.436,217.079,278.69,217.276Z" transform="translate(-34.881 -30.137)" fill="#094797"/>
    <path id="Path_133" data-name="Path 133" d="M286.88,222.811c-.261.159-.523-.019-.751-.554C286.389,222.123,286.629,222.314,286.88,222.811Z" transform="translate(-34.881 -30.137)" fill="#094797"/>
    <path id="Path_134" data-name="Path 134" d="M285.89,221.709c-.234.17-.487.018-.728-.479C285.385,221.1,285.618,221.268,285.89,221.709Z" transform="translate(-34.881 -30.137)" fill="#094797"/>
    <path id="Path_135" data-name="Path 135" d="M213.858,220.78c-.255.153-.509-.027-.732-.561C213.367,220.1,213.6,220.3,213.858,220.78Z" transform="translate(-34.881 -30.137)" fill="#094797"/>
    <path id="Path_136" data-name="Path 136" d="M283.844,219.776c-.182.076-.484-.078-.9-.466C283.124,219.233,283.425,219.39,283.844,219.776Z" transform="translate(-34.881 -30.137)" fill="#094797"/>
    <path id="Path_137" data-name="Path 137" d="M289.376,253.823c-.105-.168-.011-.489.3-.954C289.787,253.04,289.682,253.354,289.376,253.823Z" transform="translate(-34.881 -30.137)" fill="#094797"/>
    <path id="Path_138" data-name="Path 138" d="M289.948,260.164c.024.221-.19.485-.671.714C289.17,260.55,289.4,260.337,289.948,260.164Z" transform="translate(-34.881 -30.137)" fill="#094797"/>
    <path id="Path_139" data-name="Path 139" d="M288.913,225.8c-.255.135-.459-.035-.565-.529C288.583,225.19,288.755,225.373,288.913,225.8Z" transform="translate(-34.881 -30.137)" fill="#094797"/>
    <path id="Path_140" data-name="Path 140" d="M225.851,217.1c.146.293-.038.489-.569.539C225.205,217.383,225.4,217.22,225.851,217.1Z" transform="translate(-34.881 -30.137)" fill="#094797"/>
    <path id="Path_141" data-name="Path 141" d="M289.925,227.827c-.255.117-.439-.053-.489-.529C289.669,227.24,289.811,227.422,289.925,227.827Z" transform="translate(-34.881 -30.137)" fill="#094797"/>
    <path id="Path_142" data-name="Path 142" d="M288.727,254.748c-.212-.117-.184-.283.142-.443C289.008,254.286,288.806,254.674,288.727,254.748Z" transform="translate(-34.881 -30.137)" fill="#094797"/>
    <path id="Path_143" data-name="Path 143" d="M212.639,233.675a28.692,28.692,0,0,1-.907,3.332,14.579,14.579,0,0,1-1.767,2.064s.046-.054-.142-.3a30.045,30.045,0,0,0-2.947-1.64,5.19,5.19,0,0,1-.666-.416,14.969,14.969,0,0,0-2.16-.835s-.029.1-.15-.207a5.611,5.611,0,0,0-1.9-.711s0,.048-.2-.209a14.921,14.921,0,0,0-2.792-.811s0,.061-.149-.2a6.84,6.84,0,0,0-1.879-.688s.023-.05-.17-.262a11.207,11.207,0,0,0-1.816-.8s.005.018-.036-.268a4.1,4.1,0,0,1-.177-1.236c.378-2.726.685-5.045,1.2-7.692a98.319,98.319,0,0,1,10.08,1.1s-.015.062.094.3c.277.533.526.728.857.818a2.822,2.822,0,0,0,0,.377c.226,2.909.444,5.434.71,8.508Z" transform="translate(-34.881 -30.137)" fill="#094594"/>
    <path id="Path_144" data-name="Path 144" d="M184.525,249.925a14.042,14.042,0,0,1,.262-3.246,1.747,1.747,0,0,1,1.2-.615s.017-.058.13.243a19.18,19.18,0,0,0,2.869,1.764s.014-.063.083.181a3.139,3.139,0,0,0,.951.73s-.017.017.2.268a15.414,15.414,0,0,0,2.783.82s-.006-.065.135.256a25.44,25.44,0,0,1,1.248,3.267c.124,3.744.237,7.062.138,10.526-.634.437-1.057.729-1.479,1.022a16.364,16.364,0,0,1-3.946-2.089,3.14,3.14,0,0,0-1.05-1.128s-.022.07.027-.253a6.455,6.455,0,0,0-1.025-1.722s-.045.042.023-.408c.063-2.534.347-4.677-.062-6.677C186.781,251.761,185.39,250.9,184.525,249.925Z" transform="translate(-34.881 -30.137)" fill="#edeeee"/>
    <path id="Path_145" data-name="Path 145" d="M194.73,263.974c-.113-3.319-.226-6.637-.071-10.448a16.953,16.953,0,0,1,1.375-1.746A5.211,5.211,0,0,1,198.092,253a51.828,51.828,0,0,0,5.91,4.026,2.155,2.155,0,0,1,.033.384c.017,1.814.006,3.21-.005,4.607,0,0-.031-.013-.278.126a24.426,24.426,0,0,0-1.729,1.889s-.022-.03-.311,0a11.561,11.561,0,0,0-1.74.961s.028.018-.372-.021C197.71,264.612,196.22,264.293,194.73,263.974Z" transform="translate(-34.881 -30.137)" fill="#054698"/>
    <path id="Path_146" data-name="Path 146" d="M212.951,233.568c-2.024.182-3.736.257-5.232.322-.266-3.074-.484-5.6-.711-8.512.941,1.964,1.891,4.316,2.943,6.92,6.179,1.052,5.107-3.541,5-7.863.163-.369.321-.294.688-.057C215.244,227.588,218.985,231.9,212.951,233.568Z" transform="translate(-34.881 -30.137)" fill="#8a7da4"/>
    <path id="Path_147" data-name="Path 147" d="M205.976,223.54c-3.208-.125-6.5-.6-10.279-.862a7.283,7.283,0,0,1-2.7-.673c-.03-.035-.091-.1-.091-.1C197.619,218.458,201.809,220.292,205.976,223.54Z" transform="translate(-34.881 -30.137)" fill="#8a7da4"/>
    <path id="Path_148" data-name="Path 148" d="M184.154,249.966c1.236.931,2.627,1.795,2.852,2.9.409,2,.125,4.143.093,6.678a18.472,18.472,0,0,1-1.054-5.072c0-2.5-.854-3.7-3.841-3.525A4.233,4.233,0,0,1,184.154,249.966Z" transform="translate(-34.881 -30.137)" fill="#8884ac"/>
    <path id="Path_149" data-name="Path 149" d="M203.966,256.665a28.648,28.648,0,0,1-5.7-3.4A28.744,28.744,0,0,1,203.966,256.665Z" transform="translate(-34.881 -30.137)" fill="#8884ac"/>
    <path id="Path_150" data-name="Path 150" d="M178.941,259.812c-.693-2.81-3.3-6.346,1.7-8.859A74.426,74.426,0,0,1,178.941,259.812Z" transform="translate(-34.881 -30.137)" fill="#8884ac"/>
    <path id="Path_151" data-name="Path 151" d="M194.518,264.119c1.7.174,3.192.493,5.085.834a42.439,42.439,0,0,1-6.283.429C193.461,264.848,193.884,264.556,194.518,264.119Z" transform="translate(-34.881 -30.137)" fill="#8884ac"/>
    <path id="Path_152" data-name="Path 152" d="M195.955,251.455a3.423,3.423,0,0,1-1.307,1.646,12.054,12.054,0,0,1-1.543-2.758A6.323,6.323,0,0,1,195.955,251.455Z" transform="translate(-34.881 -30.137)" fill="#8884ac"/>
    <path id="Path_153" data-name="Path 153" d="M204.293,261.776a24.425,24.425,0,0,1-.275-4.368A24.52,24.52,0,0,1,204.293,261.776Z" transform="translate(-34.881 -30.137)" fill="#8884ac"/>
    <path id="Path_154" data-name="Path 154" d="M210.1,239.337a5.932,5.932,0,0,1,1.526-1.878,11.361,11.361,0,0,1,.541,3.094A4.019,4.019,0,0,1,210.1,239.337Z" transform="translate(-34.881 -30.137)" fill="#8a7da4"/>
    <path id="Path_155" data-name="Path 155" d="M206.975,237.451a7.644,7.644,0,0,1,2.819,1.336A7.635,7.635,0,0,1,206.975,237.451Z" transform="translate(-34.881 -30.137)" fill="#8a7da4"/>
    <path id="Path_156" data-name="Path 156" d="M189.965,228.043a15.44,15.44,0,0,1-.168-3.794c.305-.171.415-.077.383.3-.051,1.379-.071,2.384-.122,3.414C190.026,227.987,189.965,228.043,189.965,228.043Z" transform="translate(-34.881 -30.137)" fill="#8a7da4"/>
    <path id="Path_157" data-name="Path 157" d="M188.854,247.768a8.118,8.118,0,0,1-2.767-1.449A8.126,8.126,0,0,1,188.854,247.768Z" transform="translate(-34.881 -30.137)" fill="#8884ac"/>
    <path id="Path_158" data-name="Path 158" d="M192.8,249.8a5.281,5.281,0,0,1-2.58-.557A5.262,5.262,0,0,1,192.8,249.8Z" transform="translate(-34.881 -30.137)" fill="#8884ac"/>
    <path id="Path_159" data-name="Path 159" d="M185.873,245.772c-.209.307-.515.384-1.039.552a4.94,4.94,0,0,1-.939-1.865A4.217,4.217,0,0,1,185.873,245.772Z" transform="translate(-34.881 -30.137)" fill="#8884ac"/>
    <path id="Path_160" data-name="Path 160" d="M202.344,263.993a4.954,4.954,0,0,1,1.422-1.841A4.984,4.984,0,0,1,202.344,263.993Z" transform="translate(-34.881 -30.137)" fill="#8884ac"/>
    <path id="Path_161" data-name="Path 161" d="M199.209,234.21a5.583,5.583,0,0,1,2.606.528A5.586,5.586,0,0,1,199.209,234.21Z" transform="translate(-34.881 -30.137)" fill="#8a7da4"/>
    <path id="Path_162" data-name="Path 162" d="M213.163,242.144a5.3,5.3,0,0,1,1.923,1.534A5.28,5.28,0,0,1,213.163,242.144Z" transform="translate(-34.881 -30.137)" fill="#8a7da4"/>
    <path id="Path_163" data-name="Path 163" d="M191.924,230.094a11.354,11.354,0,0,1-1.907-1.741c-.052-.31.009-.366.281-.241a14.545,14.545,0,0,1,1.67,1.925Z" transform="translate(-34.881 -30.137)" fill="#8a7da4"/>
    <path id="Path_164" data-name="Path 164" d="M197.154,233.293a2.678,2.678,0,0,1,1.726.427A2.671,2.671,0,0,1,197.154,233.293Z" transform="translate(-34.881 -30.137)" fill="#8a7da4"/>
    <path id="Path_165" data-name="Path 165" d="M190.939,222.957a11.735,11.735,0,0,1,1.679-1.008c.288-.046.349.021.205.284a5.459,5.459,0,0,1-1.75.858C191.03,223.045,190.939,222.957,190.939,222.957Z" transform="translate(-34.881 -30.137)" fill="#8a7da4"/>
    <path id="Path_166" data-name="Path 166" d="M194.706,230.889a6.5,6.5,0,0,1,.256.831,2.413,2.413,0,0,1-1.8-.469c-.149-.272-.086-.341.186-.343C193.98,230.9,194.343,230.9,194.706,230.889Z" transform="translate(-34.881 -30.137)" fill="#8a7da4"/>
    <path id="Path_167" data-name="Path 167" d="M187.046,260.258a2.637,2.637,0,0,1,1.058,1.4A2.629,2.629,0,0,1,187.046,260.258Z" transform="translate(-34.881 -30.137)" fill="#8884ac"/>
    <path id="Path_168" data-name="Path 168" d="M200.275,264.988a3.074,3.074,0,0,1,1.448-.944A3.073,3.073,0,0,1,200.275,264.988Z" transform="translate(-34.881 -30.137)" fill="#8884ac"/>
    <path id="Path_169" data-name="Path 169" d="M195.144,232.244a2.774,2.774,0,0,1,1.643.565A2.778,2.778,0,0,1,195.144,232.244Z" transform="translate(-34.881 -30.137)" fill="#8a7da4"/>
    <path id="Path_170" data-name="Path 170" d="M181.955,241.834a2.922,2.922,0,0,1-1.084-1.457A2.916,2.916,0,0,1,181.955,241.834Z" transform="translate(-34.881 -30.137)" fill="#8884ac"/>
    <path id="Path_171" data-name="Path 171" d="M202.172,235.213a2.536,2.536,0,0,1,1.764.419A2.537,2.537,0,0,1,202.172,235.213Z" transform="translate(-34.881 -30.137)" fill="#8a7da4"/>
    <path id="Path_172" data-name="Path 172" d="M180.9,239.791a2.773,2.773,0,0,1-1-1.451A2.778,2.778,0,0,1,180.9,239.791Z" transform="translate(-34.881 -30.137)" fill="#8884ac"/>
    <path id="Path_173" data-name="Path 173" d="M204.219,236.16a2.942,2.942,0,0,1,1.827.531A2.947,2.947,0,0,1,204.219,236.16Z" transform="translate(-34.881 -30.137)" fill="#8a7da4"/>
    <path id="Path_174" data-name="Path 174" d="M192.975,231.011a1.469,1.469,0,0,1-.929-.712c-.122-.205-.093-.243.154-.18a1.259,1.259,0,0,1,.872.791S193.009,230.979,192.975,231.011Z" transform="translate(-34.881 -30.137)" fill="#8a7da4"/>
    <path id="Path_175" data-name="Path 175" d="M189.9,248.758c-.179.062-.473-.1-.868-.5C189.219,248.191,189.5,248.362,189.9,248.758Z" transform="translate(-34.881 -30.137)" fill="#8884ac"/>
    <path id="Path_176" data-name="Path 176" d="M212.157,241.112c.232-.084.55.089.929.54C212.844,241.743,212.544,241.557,212.157,241.112Z" transform="translate(-34.881 -30.137)" fill="#8a7da4"/>
    <path id="Path_177" data-name="Path 177" d="M190.048,224.029a1.308,1.308,0,0,1,.684-.953c.207-.119.3-.031.237.225a1.477,1.477,0,0,1-.757.871S190.1,224.078,190.048,224.029Z" transform="translate(-34.881 -30.137)" fill="#8a7da4"/>
    <path id="Path_178" data-name="Path 178" d="M206.928,224.777c-.25.138-.5-.057-.744-.585C206.426,224.066,206.673,224.262,206.928,224.777Z" transform="translate(-34.881 -30.137)" fill="#8a7da4"/>
    <path id="Path_179" data-name="Path 179" d="M188.126,262.154c.2-.043.482.144.783.6C188.618,262.887,188.379,262.673,188.126,262.154Z" transform="translate(-34.881 -30.137)" fill="#8884ac"/>
    <path id="Path_180" data-name="Path 180" d="M309.739,247.121a20.258,20.258,0,0,1-.227,6.423c-2.275,2.335-6.886,3.233-2.675,7.128l-6.647-.753C303.534,255.368,306.5,251.338,309.739,247.121Z" transform="translate(-34.881 -30.137)" fill="#314a60"/>
    <path id="Path_181" data-name="Path 181" d="M307.133,260.819c-4.507-4.042.1-4.94,2.288-6.848a50.538,50.538,0,0,1,.324,7.436A4.746,4.746,0,0,1,307.133,260.819Z" transform="translate(-34.881 -30.137)" fill="#11478f"/>
    <path id="Path_182" data-name="Path 182" d="M313.233,249.082c-.636-1.04-1.025-2.376-1.749-3.831a81.343,81.343,0,0,1,5.023-7.692l1.407.853C316.436,241.871,314.958,245.329,313.233,249.082Z" transform="translate(-34.881 -30.137)" fill="#b8b9a6"/>
    <path id="Path_183" data-name="Path 183" d="M313.32,252.607a8.319,8.319,0,0,1-.613-2.677A8.354,8.354,0,0,1,313.32,252.607Z" transform="translate(-34.881 -30.137)" fill="#b8b9a6"/>
    <path id="Path_184" data-name="Path 184" d="M310.832,245.264a2.013,2.013,0,0,1-.482,1.651A2.012,2.012,0,0,1,310.832,245.264Z" transform="translate(-34.881 -30.137)" fill="#b8b9a6"/>
    <path id="Path_185" data-name="Path 185" d="M321.59,266.955c.342.464.206.89-.267,1.466A1.082,1.082,0,0,1,321.59,266.955Z" transform="translate(-34.881 -30.137)" fill="#04479b"/>
    <path id="Path_186" data-name="Path 186" d="M161.3,307.488c-1.073.773-1.878,1.282-2.683,1.791l-.845-.512q1.11-2.472,2.218-4.944l-.971.167c-.282-2.067-1.456-4.656-.626-6.072a9.593,9.593,0,0,1,5.793-3.984c2.421-.507,3.421,5.377,1.3,8.3C164.246,303.942,162.878,305.562,161.3,307.488Z" transform="translate(-34.881 -30.137)" fill="#d4b02a"/>
    <path id="Path_187" data-name="Path 187" d="M145.027,296.791c2.348-.983,4.49-1.724,7.14-2.641,0,2.633.521,5.005-.207,6.894-.4,1.036-2.91,1.257-4.468,1.846C146.772,300.86,141.116,301.08,145.027,296.791Z" transform="translate(-34.881 -30.137)" fill="#cdaa2b"/>
    <path id="Path_188" data-name="Path 188" d="M245.82,263.831c.913,2.255,1.825,4.511,3.2,7.2,1.318.947,2.172,1.465,3.027,1.983-.011,3.967-.022,7.935-.006,12.351-6.841-4.418-13.709-9.286-20.812-14.8-.162-8.866.5-9.553,8.326-9.55q2.726,0,5.452.005s-.02-.013-.022.291A24.047,24.047,0,0,0,245.82,263.831Z" transform="translate(-34.881 -30.137)" fill="#f63508"/>
    <path id="Path_189" data-name="Path 189" d="M244.951,260.606a23.825,23.825,0,0,1-5.4.4c-7.828,0-8.488.684-8.573,9.306a9.846,9.846,0,0,1-2.914-1.477c1.641-10.083,6.691-12.754,16.557-9.046C244.748,259.84,244.807,260.057,244.951,260.606Z" transform="translate(-34.881 -30.137)" fill="#9d301a"/>
    <path id="Path_190" data-name="Path 190" d="M249.4,296.454a51.683,51.683,0,0,1,5.944-2.693q.336.677.674,1.354c-.682,2.122-1.363,4.244-2.352,7.326C251.4,303.44,250.009,302.187,249.4,296.454Z" transform="translate(-34.881 -30.137)" fill="#dab42d"/>
    <path id="Path_191" data-name="Path 191" d="M239.075,301.2a2.159,2.159,0,0,1,.226-1.176,43.591,43.591,0,0,1,3.352-2.9,3.088,3.088,0,0,1,.808,1.913A25.465,25.465,0,0,1,239.075,301.2Z" transform="translate(-34.881 -30.137)" fill="#314a60"/>
    <path id="Path_192" data-name="Path 192" d="M242.381,296.933a12.744,12.744,0,0,1-3.06,2.729C238.767,297.427,238.868,295.488,242.381,296.933Z" transform="translate(-34.881 -30.137)" fill="#cdaa2b"/>
    <path id="Path_193" data-name="Path 193" d="M239.208,301.47a26.8,26.8,0,0,1,4.217-2.1C243.536,302.284,242.032,303.033,239.208,301.47Z" transform="translate(-34.881 -30.137)" fill="#c8af3f"/>
    <path id="Path_194" data-name="Path 194" d="M346.814,300.876c-2.976.947-5.772,1.657-8.6,2.374-1.084-5.85,3.9-14.254,10.27-16.809-1.665,2.972-2.844,5.078-4.137,7.388,2.31,1.349,3.785,3.134,2.027,4.378A11.3,11.3,0,0,1,346.814,300.876Z" transform="translate(-34.881 -30.137)" fill="#d4b02a"/>
    <path id="Path_195" data-name="Path 195" d="M301.942,297.332c1.917-3.3,3.917-6.179,5.918-9.054l1.937.951c-1.023,2.445-1.454,5.5-3.2,7.2-2.918,2.842-.68,3.448,1.485,4.763-.988.769-1.853,1.442-3.03,2.2A35.374,35.374,0,0,1,301.942,297.332Z" transform="translate(-34.881 -30.137)" fill="#eac237"/>
    <path id="Path_196" data-name="Path 196" d="M333.92,293.568c-1.166,1.3-2.574,2.021-3.272,3.172-.67,1.106-.6,2.658-.86,4.014l1.389.627-3.733,2.6c-3.033-5.286-.417-11.875,5.01-12.882C332.825,291.03,333.471,292.449,333.92,293.568Z" transform="translate(-34.881 -30.137)" fill="#dab42d"/>
    <path id="Path_197" data-name="Path 197" d="M357.362,300.445l2.256-.407q.262.619.523,1.238a25.446,25.446,0,0,1-5.576,1.943c-.487.063-1.983-2.335-1.8-3.393a6.844,6.844,0,0,1,6.435-6.017l1.34,1.14c-1.131,1.384-2.261,2.769-3.894,4.562-.51.661-.518.916-.526,1.17Z" transform="translate(-34.881 -30.137)" fill="#dab42d"/>
    <path id="Path_198" data-name="Path 198" d="M252.339,224.377a4.914,4.914,0,0,1,2.213-1.48c3.7,13.3,7.106,26.619,10.517,39.94a16.958,16.958,0,0,1,.665,3.943c-.421,1.145-.615,1.71-.808,2.274C260.764,254.279,256.6,239.5,252.339,224.377Z" transform="translate(-34.881 -30.137)" fill="#8c1225"/>
    <path id="Path_199" data-name="Path 199" d="M264.819,269.43a10.631,10.631,0,0,1,.92-2.259c2.038,5.317,1.724,5.783-3.886,5.82-2.961.02-5.922.005-9.344.012a11.021,11.021,0,0,1-3.158-1.816C254.383,270.548,259.547,270.177,264.819,269.43Z" transform="translate(-34.881 -30.137)" fill="#8c0414"/>
    <path id="Path_200" data-name="Path 200" d="M241.685,251.053l-9.3.8,4.726-18.97.843-.077a36.475,36.475,0,0,1,1.549,6.836c-3.871,3.339-3.535,7.11-3.236,11.171Z" transform="translate(-34.881 -30.137)" fill="#9d301a"/>
    <path id="Path_201" data-name="Path 201" d="M241.868,250.664a24.98,24.98,0,0,1-5.606.145c-.3-4.061-.635-7.832,3.236-10.805A62.893,62.893,0,0,1,241.868,250.664Z" transform="translate(-34.881 -30.137)" fill="#ec3409"/>
    <path id="Path_202" data-name="Path 202" d="M245.87,263.523a6.7,6.7,0,0,1-.884-2.228A6.74,6.74,0,0,1,245.87,263.523Z" transform="translate(-34.881 -30.137)" fill="#9d301a"/>
    <path id="Path_203" data-name="Path 203" d="M190.18,224.546c.325-.51.557-.715.832-1.2.625-.425,1.146-.639,1.841-1.08a8.379,8.379,0,0,1,2.636.738,58.668,58.668,0,0,1-.713,7.477,1.749,1.749,0,0,1-1.432.425,3.953,3.953,0,0,0-1.129-.808c-.7-.675-1.173-1.269-1.885-2.015A14.894,14.894,0,0,1,190.18,224.546Z" transform="translate(-34.881 -30.137)" fill="#d9dddf"/>
    <path id="Path_204" data-name="Path 204" d="M357.2,300.246a1.9,1.9,0,0,1-1.082.435,1.327,1.327,0,0,1,.3-.889C356.814,299.792,356.928,299.919,357.2,300.246Z" transform="translate(-34.881 -30.137)" fill="#064797"/>
  </g>
</svg>
