<svg id="search-barcode" xmlns="http://www.w3.org/2000/svg" width="75" height="75" viewBox="0 0 478 512.009">
  <path id="search-barcode-2" data-name="search-barcode" d="M69.7,55.96h32.12V321.53H69.7ZM242.73,232.64A127.437,127.437,0,0,1,270,236V55.96h22.95v187.8a128.756,128.756,0,0,1,27.28,16.6V55.96h32.11V298.09c.49.87.96,1.74,1.43,2.62a127.681,127.681,0,0,1,2.17,115.1l54.37,49.11a6.106,6.106,0,0,1,.42,8.63l-33.04,36.46a6.136,6.136,0,0,1-8.64.42L317.04,463A127.829,127.829,0,0,1,129.09,298.15V55.96h9.76V283.24q1.665-2.19,3.42-4.31a128.106,128.106,0,0,1,23.85-22.3V55.96h32.13v183.9a128.046,128.046,0,0,1,27.27-6.32V55.96h17.21V232.64Zm63.05,49.23a101.768,101.768,0,1,0,25.16,30.91,101.743,101.743,0,0,0-25.16-30.91ZM9.26,0H94.9V18.52H18.51V66.9H0V9.26A9.259,9.259,0,0,1,9.26,0Zm9.25,310.59v48.38H94.9v18.52H9.26A9.259,9.259,0,0,1,0,368.23V310.59H18.51ZM383.1,0h85.64A9.265,9.265,0,0,1,478,9.26V66.9H459.49V18.52H383.1ZM478,310.59v57.64a9.265,9.265,0,0,1-9.26,9.26H383.1V358.97h76.39V310.59ZM379.62,55.96H408.3V321.53H379.62Z" fill="#181edb" fill-rule="evenodd"/>
</svg>
