<?xml version="1.0" encoding="UTF-8" standalone="no"?> <svg id="Layer_1" data-name="Layer 1" xmlns="http://www.w3.org/2000/svg" viewBox="0 0 64 64"><ellipse cx="46.87" cy="54.5" rx="8" ry="4.5" style="fill:#c9e6fb"/><rect x="2" y="2" width="60" height="35" rx="1" style="fill:#d8e0e6"/><circle cx="7" cy="49" r="3" style="fill:#65788f"/><path d="M9,52H5a3,3,0,0,0-3,3v7H12V55A3,3,0,0,0,9,52Z" style="fill:#65788f"/><circle cx="22" cy="49" r="3" style="fill:#65788f"/><path d="M24,52H20a3,3,0,0,0-3,3v7H27V55A3,3,0,0,0,24,52Z" style="fill:#65788f"/><path d="M31,18A10,10,0,0,0,21,8V18Z" style="fill:#7cb2f8"/><path d="M18,11V21H28A10,10,0,1,1,18,11Z" style="fill:#d98285"/><rect x="36" y="7" width="21" height="2" style="fill:#4f73a6"/><rect x="36" y="12" width="10" height="2" style="fill:#4f73a6"/><rect x="36" y="17" width="16" height="2" style="fill:#4f73a6"/><path d="M40.12,28.88,43,31h7.456A3,3,0,0,1,52.9,32.256L55,37l-.5,6H52V38l-1-3V55H48l-.9-10.8a.1.1,0,0,0-.2,0L46,55H43V35l-5-4-3-4,2-2Z" style="fill:#4f5d75"/><circle cx="47.049" cy="28" r="3" style="fill:#4f5d75"/></svg>