<?xml version="1.0" encoding="UTF-8" standalone="no"?> <svg width="512" height="512" viewBox="0 0 512 512" fill="none" xmlns="http://www.w3.org/2000/svg">
<path d="M173.75 446.647C173.75 448.769 172.907 450.803 171.407 452.304C169.906 453.804 167.872 454.647 165.75 454.647H160.75V458.647C160.75 460.769 159.907 462.803 158.407 464.304C156.906 465.804 154.872 466.647 152.75 466.647C150.628 466.647 148.593 465.804 147.093 464.304C145.593 462.803 144.75 460.769 144.75 458.647V454.647H140.75C138.628 454.647 136.593 453.804 135.093 452.304C133.593 450.803 132.75 448.769 132.75 446.647C132.75 444.525 133.593 442.49 135.093 440.99C136.593 439.49 138.628 438.647 140.75 438.647H144.75V434.647C144.75 432.525 145.593 430.49 147.093 428.99C148.593 427.49 150.628 426.647 152.75 426.647C154.872 426.647 156.906 427.49 158.407 428.99C159.907 430.49 160.75 432.525 160.75 434.647V438.647H165.75C167.872 438.647 169.906 439.49 171.407 440.99C172.907 442.49 173.75 444.525 173.75 446.647ZM413.492 70.9378H417.492V74.9378C417.492 77.0596 418.335 79.0944 419.835 80.5947C421.335 82.095 423.37 82.9378 425.492 82.9378C427.614 82.9378 429.648 82.095 431.149 80.5947C432.649 79.0944 433.492 77.0596 433.492 74.9378V70.9378H438.492C440.614 70.9378 442.648 70.095 444.149 68.5947C445.649 67.0944 446.492 65.0596 446.492 62.9378C446.492 60.8161 445.649 58.7813 444.149 57.281C442.648 55.7807 440.614 54.9378 438.492 54.9378H433.492V50.9378C433.492 48.8161 432.649 46.7813 431.149 45.281C429.648 43.7807 427.614 42.9378 425.492 42.9378C423.37 42.9378 421.335 43.7807 419.835 45.281C418.335 46.7813 417.492 48.8161 417.492 50.9378V54.9378H413.492C411.37 54.9378 409.335 55.7807 407.835 57.281C406.335 58.7813 405.492 60.8161 405.492 62.9378C405.492 65.0596 406.335 67.0944 407.835 68.5947C409.335 70.095 411.37 70.9378 413.492 70.9378ZM33.7429 115.409C33.8349 106.856 36.1309 99.5388 40.6039 93.6088L40.6149 93.5978C51.7149 78.8858 73.8019 74.8878 106.257 81.7208C110.757 82.6698 115.457 83.8488 120.299 85.2058C146.24 64.6071 176.525 50.1761 208.864 43.0038C241.202 35.8315 274.749 36.1058 306.966 43.8058C307.993 44.0448 308.964 44.4846 309.82 45.0999C310.677 45.7153 311.404 46.4941 311.959 47.3914C312.513 48.2887 312.885 49.2869 313.053 50.3285C313.22 51.3701 313.18 52.4345 312.934 53.4604C312.688 54.4864 312.242 55.4536 311.621 56.3065C311.001 57.1594 310.217 57.881 309.316 58.4299C308.415 58.9787 307.415 59.344 306.372 59.5046C305.329 59.6653 304.265 59.6181 303.241 59.3658C287.765 55.6737 271.91 53.812 256 53.8188C214.046 53.7252 173.118 66.7805 138.967 91.1498C153.323 96.3015 167.397 102.207 181.13 108.842C213.926 92.1442 251.361 86.885 287.488 93.8998C326.46 59.2998 361.677 38.2118 387.7 34.3928C392.62 28.098 399.034 23.1313 406.359 19.9433C413.685 16.7554 421.691 15.4472 429.65 16.1374C437.61 16.8276 445.271 19.4944 451.939 23.8958C458.606 28.2971 464.069 34.2938 467.832 41.3415C471.595 48.3893 473.538 56.2651 473.486 64.2542C473.434 72.2434 471.387 80.0931 467.533 87.091C463.678 94.0888 458.137 100.013 451.412 104.327C444.687 108.641 436.992 111.207 429.024 111.793C426.625 121.595 423.691 131.259 420.233 140.74C415.652 153.447 409.904 167.02 403.152 181.125C419.866 213.915 425.125 251.355 418.09 287.481C427.451 298.049 435.948 308.481 443.44 318.642C444.564 320.166 445.659 321.677 446.725 323.175C456.185 296.253 459.851 267.635 457.482 239.198C455.112 210.76 446.762 183.144 432.977 158.159C431.949 156.302 431.7 154.113 432.286 152.074C432.871 150.034 434.243 148.31 436.1 147.282C437.956 146.254 440.145 146.005 442.185 146.591C444.225 147.176 445.949 148.548 446.977 150.405C462.818 179.109 471.999 211.009 473.841 243.743C475.683 276.476 470.138 309.205 457.617 339.505C479.264 374.565 484.072 401.605 471.408 418.399C463.831 428.45 451.06 433.499 433.336 433.499C427.228 433.46 421.132 432.959 415.1 432C392 428.461 362.953 418.5 330.929 403.18C298.1 419.867 260.64 425.118 224.488 418.1C216.134 425.5 207.877 432.354 199.87 438.525C200.453 441.53 200.748 444.584 200.75 447.646C200.75 448.604 200.714 449.553 200.659 450.497C227.334 458.053 255.275 460.058 282.755 456.387C310.236 452.716 336.671 443.447 360.427 429.154C361.326 428.61 362.323 428.249 363.362 428.091C364.401 427.934 365.46 427.982 366.48 428.233C367.501 428.485 368.461 428.935 369.307 429.558C370.153 430.18 370.868 430.964 371.412 431.863C371.955 432.762 372.316 433.759 372.474 434.798C372.632 435.837 372.584 436.896 372.332 437.916C372.081 438.936 371.631 439.897 371.008 440.743C370.385 441.589 369.602 442.304 368.703 442.848C343.183 458.207 314.795 468.192 285.279 472.19C255.763 476.189 225.741 474.116 197.055 466.1C193.881 473.73 188.789 480.41 182.274 485.493C175.758 490.577 168.04 493.891 159.867 495.114C151.695 496.338 143.344 495.429 135.626 492.476C127.908 489.523 121.083 484.627 115.814 478.261C107.087 478.237 99.6299 475.938 93.6069 471.397L93.5909 471.384C73.6149 456.303 73.4239 420.484 93.0399 367.796C97.4459 355.962 102.747 343.596 108.84 330.86C92.1394 298.057 86.8809 260.614 93.8999 224.481C87.1369 216.849 80.8409 209.303 75.0939 201.945C70.3508 204.008 65.3034 205.285 60.1499 205.726C46.9534 257.302 54.5869 312 81.3999 357.992C82.4719 359.823 82.7726 362.005 82.2359 364.058C81.6992 366.11 80.369 367.866 78.5379 368.938C76.7069 370.01 74.5249 370.311 72.4722 369.774C70.4194 369.237 68.6639 367.907 67.5919 366.076C39.1358 317.253 30.6728 259.313 43.9749 204.391C34.5866 201.963 26.1539 196.748 19.7881 189.433C13.4223 182.118 9.42197 173.046 8.3142 163.412C7.20643 153.778 9.04319 144.035 13.5825 135.466C18.1218 126.897 25.1506 119.904 33.7429 115.409V115.409ZM240.457 120.229C245.075 121.694 249.444 123.852 253.414 126.629C257.849 122.052 262.254 117.628 266.629 113.358C262.667 108.813 258.986 106.866 256 106.866C253.52 106.87 247.653 108.367 240.457 120.229V120.229ZM373.346 264H313.046C312.783 284.945 311.095 305.849 307.993 326.565H383.672C384.818 326.566 385.951 326.814 386.993 327.293C393.039 316.179 397.645 304.34 400.7 292.062C392.227 282.78 383.109 273.426 373.346 264ZM377.427 342.565H305.157C303.356 351.652 301.086 360.641 298.357 369.494C294.086 383.163 289.144 394.223 283.637 402.549C321.487 395.451 355.109 373.949 377.427 342.565V342.565ZM228.365 402.552C222.858 394.226 217.915 383.165 213.643 369.494C210.913 360.641 208.644 351.652 206.843 342.565H134.634C156.987 373.885 190.562 395.373 228.365 402.552V402.552ZM264.835 137.838C270.197 145.195 273.342 153.932 273.898 163.019C276.985 165.126 280.073 167.265 283.164 169.435H288.816C287.14 161.572 285.231 154.145 283.085 147.279C281 140.414 278.413 133.711 275.345 127.225C271.859 130.668 268.356 134.206 264.835 137.838V137.838ZM356.22 248C342.075 235.2 326.926 222.46 311.006 210C312.153 222.252 312.842 234.989 313.042 248H356.22ZM226 214C222.909 213.997 219.825 213.696 216.792 213.1C215.769 224.441 215.155 236.117 214.967 248H297.038C296.802 230.809 295.594 213.645 293.422 196.591C288.335 192.809 283.219 189.09 278.076 185.435H269.876C266.107 193.928 259.956 201.147 252.169 206.216C244.382 211.286 235.292 213.99 226 214V214ZM214.962 264C215.222 284.953 216.976 305.861 220.208 326.565H291.792C295.024 305.861 296.777 284.953 297.038 264H214.962ZM175.623 248H198.964C199.147 236.119 199.741 224.424 200.733 213.041C200.526 213.315 200.316 213.588 200.11 213.861C191.415 225.394 183.253 236.774 175.623 248ZM165 264C151.849 284.206 139.77 305.09 128.813 326.565H204.013C200.91 305.849 199.221 284.945 198.958 264H165ZM256 405.13C262.989 405.13 273.775 394.515 283.085 364.721C285.231 357.855 287.14 350.427 288.816 342.565H223.184C224.86 350.427 226.769 357.855 228.915 364.721C238.225 394.515 249.011 405.13 256 405.13ZM404.915 248C403.765 226.101 397.764 204.732 387.348 185.435H307.989C308.108 186.209 308.228 186.982 308.343 187.762C333.244 206.502 357.083 226.612 379.75 248H404.915ZM377.366 169.435C356.74 140.553 326.515 119.947 292.094 111.3C290.524 112.736 288.949 114.193 287.368 115.673C291.895 124.24 295.576 133.228 298.357 142.51C301.086 151.363 303.356 160.351 305.157 169.439L377.366 169.435ZM194 166C193.998 172.228 195.813 178.322 199.223 183.534C202.634 188.746 207.491 192.849 213.2 195.34C218.908 197.832 225.22 198.603 231.36 197.56C237.501 196.516 243.203 193.704 247.769 189.467C252.334 185.23 255.563 179.752 257.061 173.707C258.559 167.661 258.26 161.309 256.2 155.431C254.141 149.553 250.411 144.404 245.467 140.615C240.524 136.825 234.582 134.561 228.371 134.1C228.015 134.103 227.658 134.082 227.305 134.036C226.871 134.019 226.438 134.003 226 134.003C217.516 134.012 209.383 137.386 203.384 143.385C197.385 149.383 194.01 157.516 194 166V166ZM181.524 126.836C163.045 137.543 147.06 152.065 134.634 169.436H178.134C178.054 168.3 177.998 167.157 177.998 166.001C177.991 153.322 183.016 141.16 191.97 132.184C188.458 130.345 184.968 128.55 181.524 126.836ZM107.085 248H156.36C166.015 233.421 176.371 218.771 187.334 204.229C188.631 202.509 189.938 200.788 191.257 199.067C187.456 195.079 184.367 190.468 182.126 185.435H125.332C125.108 185.435 124.888 185.42 124.669 185.402C114.242 204.707 108.236 226.089 107.085 248V248ZM118.016 312.547C126.292 296.722 135.679 280.447 146.029 264H107.085C107.964 280.683 111.66 297.097 118.016 312.547V312.547ZM184.75 447.647C184.75 441.318 182.873 435.131 179.357 429.869C175.841 424.606 170.843 420.505 164.996 418.083C159.149 415.661 152.714 415.027 146.507 416.262C140.3 417.496 134.598 420.544 130.122 425.019C125.647 429.495 122.6 435.197 121.365 441.404C120.13 447.611 120.764 454.045 123.186 459.893C125.608 465.74 129.709 470.738 134.972 474.254C140.234 477.77 146.421 479.647 152.75 479.647C161.234 479.638 169.368 476.263 175.367 470.264C181.366 464.265 184.741 456.131 184.75 447.647ZM205.65 413.269C170.106 401.804 139.472 378.68 118.705 347.639C92.8999 404.8 87.5399 446.784 103.237 458.624C104.251 459.381 105.35 460.015 106.513 460.514C104.641 453.814 104.251 446.787 105.372 439.921C106.493 433.056 109.098 426.517 113.004 420.761C112.373 420.213 111.733 419.671 111.111 419.118C110.32 418.422 109.674 417.576 109.21 416.629C108.746 415.683 108.475 414.654 108.41 413.602C108.345 412.55 108.489 411.495 108.833 410.499C109.177 409.503 109.715 408.584 110.415 407.797C111.115 407.009 111.964 406.367 112.913 405.908C113.862 405.45 114.893 405.183 115.945 405.124C116.997 405.065 118.051 405.214 119.046 405.563C120.04 405.912 120.956 406.455 121.74 407.159C122.504 407.839 123.289 408.508 124.068 409.18C129.438 405.168 135.591 402.327 142.127 400.84C148.664 399.353 155.44 399.253 162.017 400.548C168.595 401.842 174.828 404.501 180.314 408.353C185.8 412.205 190.417 417.165 193.868 422.913C197.744 419.853 201.67 416.638 205.645 413.269H205.65ZM413.27 306.345C401.881 341.922 378.766 372.588 347.7 393.334C374.357 405.38 398.3 413.234 417.528 416.18C438.061 419.326 452.658 416.692 458.628 408.767C465.822 399.225 462.292 380.776 449.351 357.151C440.522 374 429.529 389.624 416.651 403.624C415.948 404.426 415.092 405.079 414.133 405.546C413.174 406.012 412.131 406.282 411.066 406.34C410.001 406.397 408.935 406.241 407.931 405.881C406.928 405.52 406.006 404.963 405.221 404.241C404.436 403.52 403.803 402.648 403.359 401.678C402.915 400.708 402.67 399.66 402.638 398.594C402.606 397.528 402.787 396.466 403.171 395.471C403.555 394.476 404.134 393.568 404.874 392.8C419.033 377.408 430.718 359.911 439.509 340.935C436.76 336.777 433.777 332.51 430.561 328.135C425.3 321 419.513 313.716 413.27 306.345ZM404.217 272.385C404.523 269.607 404.749 266.812 404.896 264H396.086C398.85 266.8 401.56 269.595 404.217 272.385V272.385ZM393.492 63.9378C393.492 70.2668 395.369 76.4537 398.885 81.7161C402.401 86.9784 407.399 91.08 413.246 93.502C419.093 95.924 425.527 96.5577 431.735 95.3229C437.942 94.0882 443.644 91.0405 448.119 86.5652C452.595 82.09 455.642 76.3881 456.877 70.1807C458.112 63.9733 457.478 57.5392 455.056 51.692C452.634 45.8447 448.533 40.847 443.27 37.3308C438.008 33.8146 431.821 31.9378 425.492 31.9378C417.008 31.9473 408.874 35.3218 402.875 41.3209C396.876 47.32 393.501 55.4538 393.492 63.9378V63.9378ZM306.337 98.7248C341.892 110.189 372.537 133.32 393.307 164.372C397.869 154.284 401.856 144.547 405.185 135.313C408.373 126.471 410.968 118.08 412.938 110.261C400.912 107.012 390.622 99.211 384.247 88.5089C377.872 77.8067 375.912 65.0437 378.782 52.9218C358.993 59.3748 333.867 75.3398 306.337 98.7248ZM199.426 118.025C201.893 119.315 204.375 120.635 206.874 121.985C212.096 119.704 217.684 118.379 223.374 118.073C224.895 115.102 226.58 112.218 228.421 109.435C218.488 111.301 208.772 114.18 199.426 118.027V118.025ZM123.926 102.961C113.802 111.697 104.561 121.408 96.3379 131.954C102.464 141.438 105.041 152.782 103.613 163.982C102.186 175.182 96.8466 185.517 88.5379 193.162C91.7652 197.264 95.1652 201.422 98.7379 205.636C110.205 170.091 133.332 139.456 164.376 118.691C151.215 112.656 137.71 107.404 123.93 102.963L123.926 102.961ZM50.2959 110.261C62.8272 108.734 75.4524 112.241 85.4009 120.012C91.6318 112.215 98.3872 104.852 105.62 97.9738C104.733 97.7738 103.833 97.5578 102.961 97.3738C77.8309 92.0838 60.2249 94.1648 53.3829 103.234C51.8505 105.323 50.7979 107.724 50.2999 110.267L50.2959 110.261ZM23.9999 157.917C23.9961 163.558 25.4845 169.099 28.3141 173.979C31.1437 178.859 35.2138 182.904 40.1115 185.703C45.0092 188.502 50.56 189.955 56.2009 189.916C61.8417 189.876 67.3718 188.346 72.2299 185.479C72.3109 185.413 72.3849 185.342 72.4689 185.279C72.9242 184.937 73.4142 184.645 73.9309 184.407C78.5039 181.313 82.1987 177.089 84.6559 172.144C87.1132 167.2 88.2494 161.704 87.9541 156.191C87.6588 150.678 85.942 145.334 82.9706 140.681C79.9992 136.027 75.8744 132.222 70.997 129.634C66.1197 127.047 60.6558 125.765 55.1366 125.914C49.6174 126.063 44.2306 127.638 39.5 130.484C34.7693 133.331 30.8557 137.354 28.1396 142.161C25.4236 146.968 23.9974 152.396 23.9999 157.917V157.917ZM43.9999 164.917H47.9999V168.917C47.9999 171.039 48.8428 173.073 50.3431 174.574C51.8433 176.074 53.8782 176.917 55.9999 176.917C58.1216 176.917 60.1565 176.074 61.6568 174.574C63.157 173.073 63.9999 171.039 63.9999 168.917V164.917H68.9999C71.1216 164.917 73.1565 164.074 74.6568 162.574C76.1571 161.073 76.9999 159.039 76.9999 156.917C76.9999 154.795 76.1571 152.76 74.6568 151.26C73.1565 149.76 71.1216 148.917 68.9999 148.917H63.9999V144.917C63.9999 142.795 63.157 140.76 61.6568 139.26C60.1565 137.76 58.1216 136.917 55.9999 136.917C53.8782 136.917 51.8433 137.76 50.3431 139.26C48.8428 140.76 47.9999 142.795 47.9999 144.917V148.917H43.9999C41.8782 148.917 39.8433 149.76 38.3431 151.26C36.8428 152.76 35.9999 154.795 35.9999 156.917C35.9999 159.039 36.8428 161.073 38.3431 162.574C39.8433 164.074 41.8782 164.917 43.9999 164.917ZM214 173H218V177C218 179.122 218.843 181.156 220.343 182.657C221.843 184.157 223.878 185 226 185C228.122 185 230.156 184.157 231.657 182.657C233.157 181.156 234 179.122 234 177V173H239C241.122 173 243.156 172.157 244.657 170.657C246.157 169.156 247 167.122 247 165C247 162.878 246.157 160.843 244.657 159.343C243.156 157.843 241.122 157 239 157H234V153C234 150.878 233.157 148.843 231.657 147.343C230.156 145.843 228.122 145 226 145C223.878 145 221.843 145.843 220.343 147.343C218.843 148.843 218 150.878 218 153V157H214C211.878 157 209.843 157.843 208.343 159.343C206.843 160.843 206 162.878 206 165C206 167.122 206.843 169.156 208.343 170.657C209.843 172.157 211.878 173 214 173Z" fill="url(#paint0_linear_18_88243)"/>
<defs>
<linearGradient id="paint0_linear_18_88243" x1="66.8819" y1="445.123" x2="470.705" y2="41.2998" gradientUnits="userSpaceOnUse">
<stop stop-color="#41DFD0"/>
<stop offset="1" stop-color="#EE83EF"/>
</linearGradient>
</defs>
</svg>
