<svg id="list-task-svgrepo-com" xmlns="http://www.w3.org/2000/svg" width="455.123" height="467.382" viewBox="0 0 455.123 467.382">
  <path id="list-task-svgrepo-com-2" data-name="list-task-svgrepo-com" d="M60.683,334.789h60.683c15.56,0,28.385,12.892,30.137,29.505l.2,3.894v66.8c0,17.127-11.713,31.246-26.8,33.176l-3.538.224H60.683c-15.56,0-28.385-12.892-30.137-29.505l-.2-3.894v-66.8c0-17.127,11.713-31.246,26.8-33.176l3.538-.224h0Zm364.1,33.4c16.758,0,30.342,14.953,30.342,33.4s-13.584,33.4-30.342,33.4H242.732c-16.757,0-30.342-14.953-30.342-33.4s13.585-33.4,30.342-33.4Zm-303.415,0H60.683v66.8h60.683Zm0-200.4c16.757,0,30.342,14.954,30.342,33.4v66.8c0,18.446-13.585,33.4-30.342,33.4H60.683c-16.757,0-30.342-14.954-30.342-33.4v-66.8c0-18.446,13.585-33.4,30.342-33.4Zm303.415,33.4c16.758,0,30.342,14.954,30.342,33.4,0,17.128-11.712,31.246-26.8,33.175l-3.538.225H242.732c-16.757,0-30.342-14.954-30.342-33.4,0-17.128,11.713-31.246,26.8-33.175l3.538-.225Zm-303.415,0H60.683v66.8h60.683Zm23.5-192.846c8.079,8.893,8.813,22.81,2.2,32.616l-2.2,2.81L69.189,127.08A21.752,21.752,0,0,1,53.1,134.417a21.386,21.386,0,0,1-13.358-4.77l-2.733-2.567L6.665,93.68a26.869,26.869,0,0,1,0-35.426c8.079-8.893,20.721-9.7,29.63-2.425l2.552,2.425L53.1,73.941l59.591-65.6A21.313,21.313,0,0,1,144.871,8.343ZM424.782,34.19c16.758,0,30.342,14.954,30.342,33.4,0,17.128-11.712,31.246-26.8,33.175l-3.538.225H242.732c-16.757,0-30.342-14.954-30.342-33.4,0-17.128,11.713-31.246,26.8-33.175l3.538-.225Z" transform="translate(0 -1.006)" fill="#161a9a"/>
</svg>
