<?xml version="1.0" standalone="no"?>
<!DOCTYPE svg PUBLIC "-//W3C//DTD SVG 20010904//EN"
 "http://www.w3.org/TR/2001/REC-SVG-20010904/DTD/svg10.dtd">
<svg version="1.0" xmlns="http://www.w3.org/2000/svg"
 width="1110.000000pt" height="1080.000000pt" viewBox="0 0 1110.000000 1080.000000"
 preserveAspectRatio="xMidYMid meet">

<g transform="translate(0.000000,1080.000000) scale(0.100000,-0.100000)"
fill="#000000" stroke="none">
<path d="M5265 10168 c-1027 -45 -2037 -444 -2840 -1121 -754 -636 -1308
-1525 -1545 -2477 -89 -356 -137 -708 -142 -1046 -3 -139 -2 -142 27 -200 35
-68 96 -119 161 -135 43 -11 44 -12 45 -53 0 -22 2 -48 3 -56 2 -8 6 -53 10
-100 65 -780 362 -1571 843 -2247 43 -60 44 -63 33 -102 -15 -57 1 -111 45
-150 121 -106 296 27 226 172 -33 69 -124 107 -181 77 -16 -8 -28 4 -87 88
-404 571 -671 1235 -772 1920 -19 124 -41 335 -41 388 l0 50 55 23 c70 29 129
95 149 165 9 29 20 142 26 261 30 575 162 1096 411 1615 274 571 673 1069
1179 1474 607 486 1342 796 2105 890 185 23 237 27 441 35 164 6 194 10 230
29 97 50 149 135 148 244 -2 109 -59 196 -158 239 -60 26 -119 29 -371 17z"/>
<path d="M5240 9345 c-260 -19 -440 -47 -698 -111 -822 -202 -1579 -688 -2116
-1359 -364 -453 -620 -971 -755 -1526 -150 -617 -155 -1223 -15 -1837 l26
-113 44 41 c54 49 176 110 221 110 27 0 34 -5 39 -25 7 -29 -14 -58 -58 -81
-40 -21 -54 -17 -32 7 19 21 18 21 -26 -1 -111 -56 -202 -166 -153 -184 15 -6
116 66 176 126 28 27 51 28 61 3 3 -8 -17 -50 -44 -94 -26 -45 -43 -78 -37
-74 7 3 24 15 39 25 31 21 38 22 38 6 0 -7 -31 -35 -69 -63 -37 -27 -79 -65
-94 -84 -23 -29 -25 -36 -12 -45 8 -6 26 -41 39 -78 14 -37 50 -123 80 -190
302 -680 788 -1260 1401 -1674 593 -400 1232 -618 1969 -671 199 -15 257 -15
435 -4 591 36 1055 155 1561 402 767 374 1425 1032 1799 1799 80 163 157 347
191 455 7 22 17 46 23 53 7 9 4 12 -11 12 -12 0 -28 10 -36 22 -37 52 -5 130
69 174 l43 25 26 112 c54 241 70 346 91 617 18 229 18 325 0 560 -29 385 -119
794 -249 1132 -342 893 -1019 1654 -1861 2092 -515 268 -1039 411 -1642 446
-202 12 -220 12 -463 -5z m435 -755 c222 -55 448 -222 623 -460 75 -102 94
-129 108 -160 4 -8 19 -33 34 -55 35 -53 146 -278 185 -374 35 -87 19 -83 185
-57 297 47 655 39 875 -20 284 -75 481 -224 588 -444 43 -88 56 -138 68 -254
11 -110 -1 -317 -20 -355 -5 -9 -12 -34 -15 -56 -8 -41 -29 -114 -45 -150 -5
-11 -19 -45 -31 -75 -66 -163 -206 -403 -311 -533 -54 -67 -139 -192 -139
-204 0 -4 14 -24 31 -43 17 -19 37 -45 46 -57 l15 -23 62 55 c83 75 164 115
232 115 45 0 56 -4 73 -26 61 -78 -20 -194 -194 -280 -30 -14 -55 -28 -55 -31
0 -2 12 -19 26 -38 23 -31 28 -33 55 -23 16 6 67 34 112 64 l82 53 3 -35 c3
-31 -3 -43 -45 -87 -26 -29 -64 -65 -83 -82 l-36 -30 67 -130 c64 -125 119
-266 137 -350 7 -37 10 -40 37 -36 16 1 40 14 52 28 24 25 61 27 54 2 -2 -8
-3 -22 -3 -33 1 -27 -27 -66 -49 -66 -19 0 -59 -64 -59 -95 0 -20 6 -19 46 6
46 28 46 4 -1 -41 -32 -31 -35 -39 -35 -89 -1 -356 -217 -636 -585 -759 -50
-17 -115 -35 -145 -41 -30 -5 -84 -16 -120 -23 -143 -28 -528 -14 -753 28 -61
12 -82 12 -93 3 -8 -6 -14 -16 -14 -21 0 -5 -8 -28 -19 -51 -10 -23 -29 -67
-42 -97 -176 -405 -441 -733 -704 -873 -146 -78 -308 -109 -452 -88 -111 16
-181 39 -280 91 -103 55 -170 107 -273 210 -102 102 -178 202 -268 353 -65
109 -192 356 -192 375 0 8 -22 60 -39 92 -10 18 -24 18 -166 -4 -492 -76 -910
-20 -1185 159 -224 145 -349 374 -350 642 0 44 -2 51 -18 46 -24 -6 -38 13
-46 63 -5 34 -2 44 15 60 11 10 25 27 31 38 9 16 7 18 -11 13 -15 -4 -21 -1
-21 12 0 26 37 61 64 61 20 0 25 7 31 38 7 38 29 111 44 147 5 11 16 40 26 65
9 25 38 87 64 139 32 65 42 95 34 98 -7 3 -13 10 -13 16 0 7 45 168 101 360
l101 347 -19 29 c-10 17 -47 76 -82 131 -55 88 -191 348 -191 366 0 3 -6 20
-14 37 -13 29 -42 117 -66 202 -7 26 -19 107 -35 233 -5 44 12 192 31 267 34
137 151 318 255 396 65 48 184 115 239 134 30 11 60 22 65 26 12 8 107 31 230
56 111 22 484 25 610 5 44 -7 112 -17 150 -22 39 -6 80 -13 92 -16 19 -5 26 1
47 47 14 30 35 79 46 109 36 92 160 319 232 425 158 232 323 389 503 478 63
31 96 43 215 75 62 17 209 13 295 -8z m-3145 -4144 c0 -8 -5 -18 -11 -22 -8
-5 -8 -9 1 -14 10 -6 7 -16 -9 -39 -12 -17 -27 -32 -32 -32 -5 -1 -14 -2 -21
-3 -14 -1 -55 -93 -45 -102 3 -3 21 3 40 15 41 25 47 26 47 7 0 -17 -75 -81
-105 -90 -30 -9 -41 4 -48 53 -5 40 -2 49 26 80 30 35 30 36 9 39 -12 2 -22 8
-22 15 0 19 43 57 65 57 12 0 32 11 45 25 26 27 60 33 60 11z m6156 -10 c8
-22 -14 -56 -37 -56 -27 0 -35 27 -14 50 21 23 43 26 51 6z m-6462 -61 c26
-27 -3 -74 -67 -106 -21 -11 -35 -24 -32 -29 10 -16 48 -11 75 10 57 44 55 4
-2 -44 -70 -61 -138 -41 -138 39 0 49 51 110 112 134 32 13 35 13 52 -4z
m6423 -21 c2 -6 -12 -30 -32 -54 -19 -23 -35 -46 -35 -51 0 -15 39 -10 65 7
24 15 25 15 25 -4 0 -22 -47 -66 -82 -78 -29 -9 -58 27 -58 73 0 38 30 96 58
113 21 12 54 9 59 -6z m339 2 c3 -8 -2 -29 -11 -48 -17 -33 -17 -33 28 11 66
63 110 38 52 -31 -14 -16 -25 -34 -25 -39 0 -14 22 -11 42 8 20 18 34 12 25
-11 -8 -19 -85 -76 -104 -76 -21 0 -28 29 -15 63 11 30 11 30 -32 -12 -29 -29
-50 -42 -60 -38 -20 8 -20 20 -1 60 14 28 10 26 -29 -17 -38 -42 -47 -47 -60
-36 -43 35 10 170 66 170 24 0 23 -32 -2 -55 -11 -10 -20 -21 -20 -25 0 -3 23
16 51 42 51 48 85 60 95 34z m-4506 -2201 c17 -21 7 -40 -39 -72 -22 -16 -40
-30 -40 -33 0 -3 20 -14 44 -26 37 -17 47 -19 56 -8 19 23 41 17 33 -8 -6 -22
-5 -21 23 5 16 15 34 27 41 27 14 0 15 -2 2 -34 -7 -20 -6 -24 5 -19 8 3 15 0
15 -6 0 -6 -4 -11 -10 -11 -5 0 -28 -25 -50 -55 -22 -30 -47 -55 -55 -55 -22
0 -18 16 14 52 15 18 32 44 36 58 7 24 7 24 -12 8 -22 -20 -53 -24 -53 -7 0 7
-7 8 -17 4 -107 -44 -159 -52 -132 -19 7 8 9 31 6 54 -3 22 -1 43 4 46 5 3 9
18 9 33 0 15 6 33 13 40 10 11 8 12 -10 6 -17 -4 -23 -2 -23 9 0 17 19 23 81
25 30 1 51 -4 59 -14z m561 5 c23 -13 25 -48 4 -57 -9 -3 -21 2 -28 11 -8 11
-19 15 -30 10 -27 -10 -20 -30 18 -53 45 -26 45 -53 1 -97 -38 -38 -83 -45
-110 -18 -23 22 -20 51 5 57 15 4 23 0 26 -14 6 -21 33 -25 51 -7 18 18 15 24
-23 47 -51 30 -45 84 13 115 33 18 47 19 73 6z m183 2 c7 -13 -7 -30 -34 -40
-19 -7 -30 -26 -50 -87 -25 -74 -50 -109 -66 -92 -6 6 18 98 43 165 3 6 -2 12
-10 12 -22 0 -31 18 -17 35 13 16 125 22 134 7z m350 -5 c10 -7 17 -22 14 -33
-4 -23 -38 -32 -38 -10 0 22 -39 21 -47 -1 -4 -11 0 -21 12 -27 30 -18 55 -45
55 -60 0 -27 -50 -75 -86 -82 -39 -7 -74 15 -74 46 0 26 38 33 45 9 8 -23 38
-25 55 -4 15 18 1 40 -30 50 -45 14 -28 88 25 111 38 17 47 17 69 1z m-230
-12 c29 -29 -12 -157 -55 -170 -10 -4 -19 -10 -19 -15 0 -8 -56 -8 -64 1 -23
22 -3 119 28 141 6 4 7 8 2 8 -11 0 33 35 54 43 25 9 38 8 54 -8z m696 -5 c-6
-11 -17 -20 -25 -20 -8 0 -15 9 -15 20 0 15 7 20 25 20 23 0 24 -2 15 -20z
m446 -41 c-3 -34 -6 -82 -6 -105 0 -41 -2 -44 -26 -44 -23 0 -25 3 -20 25 6
23 3 25 -24 25 -23 0 -33 -6 -42 -25 -9 -21 -48 -37 -48 -20 0 3 28 50 62 105
51 81 67 100 87 100 23 0 24 -2 17 -61z m-763 -10 c5 -9 7 -28 3 -42 -6 -24
-11 -27 -51 -27 -38 0 -45 -3 -45 -20 0 -21 24 -28 35 -10 3 6 16 10 28 10 20
-1 19 -3 -11 -30 -50 -46 -92 -36 -92 22 0 83 98 154 133 97z m77 9 c0 -9 3
-9 12 0 7 7 26 12 44 12 32 0 32 0 26 -45 -2 -25 -2 -45 1 -45 4 0 16 18 27
40 20 38 44 59 56 47 3 -2 -17 -39 -43 -81 -32 -51 -54 -76 -67 -76 -17 0 -18
6 -14 73 3 39 3 66 1 60 -3 -7 -10 -13 -17 -13 -20 0 -43 -31 -57 -77 -8 -31
-18 -43 -31 -43 -10 0 -18 4 -18 8 0 7 26 89 45 140 6 15 35 16 35 0z m202
-68 c-20 -60 -31 -80 -44 -80 -10 0 -18 4 -18 8 0 7 26 89 45 140 2 6 13 12
24 12 18 0 18 -3 -7 -80z m148 60 c6 -11 8 -25 5 -30 -9 -15 -32 -12 -39 5 -3
8 -10 15 -16 15 -12 0 -40 -60 -40 -85 0 -20 20 -19 35 1 6 9 20 14 31 12 17
-3 16 -7 -13 -36 -86 -87 -134 24 -50 116 26 28 72 29 87 2z m133 -1 c5 -9 7
-28 3 -42 -6 -24 -11 -27 -51 -27 -38 0 -45 -3 -45 -20 0 -21 24 -28 35 -10 3
6 16 10 28 10 20 -1 19 -3 -11 -30 -50 -46 -92 -36 -92 22 0 83 98 154 133 97z
m297 11 c0 -6 7 -6 19 1 30 20 51 4 51 -37 0 -66 -61 -134 -105 -118 -8 4 -15
1 -15 -5 0 -7 21 -11 53 -11 l53 0 28 86 c25 78 54 116 64 86 2 -8 8 -8 21 0
31 19 51 3 51 -39 0 -67 -60 -134 -105 -117 -8 4 -15 1 -15 -5 0 -6 19 -11 45
-11 25 0 45 -4 45 -10 0 -10 -30 -12 -200 -12 -883 0 -1190 3 -1190 12 0 7
191 10 553 10 l553 0 29 90 c22 70 33 90 47 90 10 0 18 -5 18 -10z"/>
<path d="M5425 8379 c-106 -13 -228 -77 -349 -183 -159 -139 -329 -395 -446
-670 -42 -99 -45 -126 -14 -126 10 0 31 -4 48 -10 17 -5 65 -19 106 -31 188
-54 440 -146 629 -228 106 -46 118 -48 169 -25 21 9 46 20 57 24 11 5 43 18
70 30 28 12 59 25 70 30 48 22 385 140 400 140 13 0 69 -176 62 -195 -3 -7
-23 -18 -44 -25 -21 -6 -47 -15 -58 -20 -11 -5 -49 -18 -85 -30 -36 -11 -74
-25 -85 -30 -11 -4 -57 -23 -102 -41 l-82 -32 47 -25 c47 -25 194 -105 287
-157 137 -77 377 -231 528 -337 67 -48 67 -48 67 -22 0 15 -4 43 -9 63 -6 20
-19 90 -31 156 -12 66 -25 134 -30 150 -5 17 -21 77 -35 135 -29 120 -86 307
-120 395 -65 169 -90 229 -137 325 -106 221 -213 377 -352 515 -180 178 -360
250 -561 224z"/>
<path d="M3650 7294 c-14 -2 -63 -9 -110 -15 -365 -47 -599 -230 -641 -502
-14 -88 -6 -240 17 -334 37 -149 146 -403 218 -509 l22 -33 24 87 c13 48 28
93 33 100 7 9 52 12 162 12 110 0 155 -3 162 -12 11 -16 75 -249 70 -255 -3
-2 -20 52 -39 119 l-34 123 -159 0 -159 0 -47 -160 c-25 -88 -78 -272 -118
-410 -40 -137 -76 -263 -82 -280 -18 -59 -89 -304 -89 -310 0 -3 34 -5 77 -3
l76 3 23 87 c13 47 30 102 38 122 l15 36 160 -1 160 0 11 -42 c6 -23 21 -78
34 -122 l23 -80 177 -3 c97 -1 176 1 176 6 0 5 -25 98 -55 207 -31 109 -54
203 -52 209 2 6 18 -44 37 -112 24 -88 39 -126 54 -136 25 -17 51 -40 137
-120 39 -37 65 -54 67 -46 3 7 -3 17 -12 22 -10 5 -33 23 -52 40 -65 57 -94
135 -94 255 l0 81 70 13 70 12 0 55 c0 47 -4 59 -35 95 -49 56 -76 117 -88
197 l-11 68 -98 -91 c-54 -50 -98 -98 -98 -107 0 -9 11 -55 26 -104 14 -48 24
-92 22 -98 -2 -5 -16 37 -32 94 -15 56 -45 163 -66 236 -20 73 -32 131 -26
129 6 -2 61 42 121 97 61 56 161 144 223 195 61 52 112 99 112 105 0 6 5 40
11 76 5 36 16 110 25 165 8 55 18 120 23 145 5 25 16 79 23 120 16 85 22 89
94 71 154 -38 141 -26 123 -116 -12 -60 -36 -195 -46 -250 l-6 -40 34 26 c166
127 523 347 779 482 63 33 116 61 117 62 2 1 -34 16 -80 34 -45 18 -96 39
-114 47 -17 8 -37 14 -45 14 -8 0 -18 4 -23 8 -6 5 -44 19 -85 31 -41 13 -102
32 -134 43 -57 20 -179 53 -311 84 -104 25 -237 46 -460 74 -75 9 -289 12
-345 4z m-355 -1588 c9 -38 18 -79 19 -90 1 -12 5 -26 8 -31 7 -12 68 -257 68
-273 0 -9 -37 -12 -125 -12 -69 0 -125 2 -125 4 0 3 11 47 26 98 14 51 27 102
29 113 5 22 63 232 71 254 7 20 10 13 29 -63z"/>
<path d="M3271 5724 c0 -11 3 -14 6 -6 3 7 2 16 -1 19 -3 4 -6 -2 -5 -13z"/>
<path d="M3176 5406 c-8 -34 -18 -70 -22 -79 -4 -12 -1 -17 12 -17 11 1 31 19
47 45 27 42 27 46 13 74 -25 48 -33 44 -50 -23z"/>
<path d="M6980 7284 c-192 -20 -252 -33 -245 -53 94 -300 161 -610 211 -984 7
-50 1 -44 193 -202 73 -60 241 -220 241 -229 0 -14 -132 -146 -145 -146 -6 0
-24 14 -40 32 l-30 32 -10 -30 c-5 -16 -35 -81 -66 -144 -41 -81 -54 -118 -47
-127 7 -9 1 -23 -20 -50 l-29 -38 -1 -152 0 -152 35 -8 34 -8 -40 -54 c-61
-81 -50 -84 27 -8 69 68 69 69 64 115 -6 67 11 118 65 197 64 92 120 135 178
135 55 0 71 -22 56 -78 l-10 -37 26 30 c14 17 39 46 57 65 180 203 371 474
470 668 69 134 85 175 147 367 5 17 15 81 21 143 26 247 -43 431 -206 551
-200 147 -543 208 -936 165z m530 -1694 c26 -26 25 -53 -2 -101 -28 -51 -78
-75 -115 -57 -55 26 -53 95 4 153 32 31 84 34 113 5z"/>
<path d="M5375 6774 c-178 -90 -280 -146 -413 -226 -62 -37 -114 -68 -116 -68
-9 0 -325 -214 -421 -284 l-110 -81 82 -7 c142 -12 247 -78 294 -184 21 -47
42 -175 30 -187 -6 -6 -158 -37 -183 -37 -4 0 -8 39 -10 88 -2 48 -6 94 -8
102 -7 20 -42 48 -82 64 -41 17 -149 29 -164 19 -7 -5 -13 -55 -16 -120 l-6
-112 47 -17 c196 -72 300 -131 374 -214 57 -63 81 -113 96 -195 25 -136 -27
-264 -139 -348 -71 -53 -156 -79 -273 -85 l-99 -4 6 -47 c18 -129 6 -112 144
-214 231 -171 342 -235 342 -197 0 5 11 17 25 26 27 18 61 12 48 -8 -4 -7 -9
-22 -10 -33 0 -11 -4 -29 -8 -40 -5 -18 3 -26 49 -50 l56 -29 28 28 c26 26 26
27 5 24 -12 -2 -22 0 -23 5 -1 22 2 29 20 47 11 11 29 20 40 20 10 0 30 11 44
25 38 38 56 33 52 -13 -4 -52 -22 -82 -49 -82 -17 0 -28 -10 -40 -35 -30 -64
-21 -78 33 -50 33 17 41 4 15 -25 -13 -15 -3 -22 108 -82 67 -37 177 -94 244
-128 l122 -62 173 87 c95 48 189 97 208 109 19 12 52 30 73 41 32 17 37 24 37
54 0 26 8 42 36 68 43 41 104 73 138 73 26 0 44 -29 25 -40 -7 -5 -8 -10 -1
-14 6 -3 13 -2 17 3 3 6 65 49 138 97 73 48 189 129 259 181 138 102 126 85
144 215 6 44 4 47 -17 53 -13 3 -62 14 -109 25 -47 12 -123 23 -170 26 -75 5
-93 3 -153 -20 -77 -30 -109 -32 -127 -11 -18 21 -5 58 42 127 46 69 88 93
185 104 l62 6 53 82 c29 44 97 141 150 214 l98 132 0 83 c0 90 -16 340 -26
399 -5 34 -17 46 -132 131 -108 80 -428 297 -438 297 -2 0 -55 32 -119 70 -64
39 -118 70 -121 70 -2 0 -21 11 -42 23 -41 27 -373 197 -381 197 -4 0 -64 -30
-136 -66z m136 -854 c26 -96 70 -260 99 -365 29 -104 63 -228 75 -275 31 -113
82 -297 94 -337 5 -17 7 -34 3 -37 -3 -3 -88 -6 -188 -6 l-184 0 -6 28 c-3 15
-18 70 -33 122 l-27 95 -156 3 -156 2 -17 -57 c-9 -32 -25 -88 -36 -125 l-20
-68 -84 0 c-47 0 -85 3 -85 6 0 4 14 55 31 113 199 682 297 1021 301 1046 2
11 8 23 13 27 6 5 82 7 169 5 l159 -2 48 -175z m-181 -1570 c0 -20 -75 -90
-97 -90 -7 0 -13 -7 -13 -15 0 -21 37 -19 76 6 24 15 34 17 34 7 -1 -32 -71
-88 -111 -88 -40 0 -59 24 -59 76 0 39 5 50 44 88 24 25 54 46 67 48 33 5 59
-9 59 -32z m185 29 c4 -5 17 -9 28 -8 59 4 66 -17 25 -76 -36 -51 -31 -67 13
-41 36 21 47 16 27 -13 -24 -35 -67 -63 -90 -59 -29 4 -35 45 -13 87 20 40 2
41 -32 1 -27 -33 -49 -40 -38 -12 4 9 8 31 9 49 1 18 12 43 26 58 26 27 35 31
45 14z"/>
<path d="M5155 6072 c-6 -4 -21 -43 -34 -87 -13 -44 -32 -105 -41 -135 -10
-30 -24 -81 -31 -112 -8 -32 -17 -58 -21 -58 -5 0 -8 -10 -8 -22 0 -12 -4 -35
-10 -52 -5 -17 -19 -65 -31 -106 -12 -41 -26 -88 -32 -105 -7 -16 -12 -34 -13
-40 0 -5 -2 -14 -4 -20 -1 -5 -3 -14 -4 -20 -4 -21 -28 -102 -47 -157 -11 -31
-22 -65 -23 -75 -2 -10 -11 -47 -21 -82 -9 -35 -14 -69 -12 -75 3 -6 20 -10
38 -9 19 1 46 2 61 2 28 1 28 2 75 166 25 86 11 80 192 80 l163 0 19 -55 c11
-30 27 -84 35 -120 9 -36 18 -67 20 -69 4 -5 327 -1 333 4 4 4 0 20 -33 135
-15 54 -62 243 -72 288 -2 13 -8 21 -13 18 -4 -3 -8 7 -8 22 0 15 -10 61 -22
102 -12 41 -30 109 -40 150 -10 41 -24 88 -30 104 -6 16 -9 31 -6 34 2 3 1 10
-4 16 -8 11 -39 119 -65 226 l-13 55 -144 2 c-79 2 -149 0 -154 -5z m80 -418
c15 -60 30 -120 35 -134 15 -45 21 -80 12 -80 -5 0 -24 60 -42 133 -46 187
-44 182 -67 101 -33 -111 -93 -339 -93 -352 0 -9 31 -12 111 -12 l112 0 -7 38
c-3 20 -9 47 -12 60 -4 12 -2 22 4 22 11 0 36 -116 27 -130 -6 -10 -201 -12
-237 -3 -19 5 -27 63 -9 63 6 0 9 8 8 18 -1 19 20 106 34 137 7 16 46 160 64
238 15 63 26 44 60 -99z"/>
<path d="M5249 4321 c-13 -11 -21 -22 -18 -25 3 -3 16 5 29 19 28 30 22 33
-11 6z"/>
<path d="M4208 6084 c-31 -6 -77 -21 -102 -33 -26 -13 -51 -19 -58 -15 -8 5
-7 1 2 -11 8 -10 10 -16 4 -12 -24 14 -121 -117 -139 -188 -23 -93 11 -242 69
-300 14 -14 26 -29 27 -33 0 -4 5 -6 11 -4 5 1 7 -1 4 -6 -4 -7 27 -42 39 -42
2 0 23 -13 47 -28 48 -32 139 -72 162 -72 9 0 16 -3 16 -7 0 -5 25 -19 55 -32
30 -14 55 -28 55 -32 0 -4 8 -10 18 -13 25 -8 62 -77 62 -115 0 -54 -24 -94
-68 -118 -58 -31 -194 -28 -265 5 -26 13 -45 27 -42 32 4 6 2 10 -4 10 -24 0
-43 63 -42 144 0 45 2 90 5 102 4 17 0 20 -25 16 -16 -2 -27 -7 -25 -11 2 -3
-10 -6 -27 -7 -18 0 -44 -4 -59 -7 -27 -7 -28 -9 -28 -82 0 -103 26 -169 90
-229 29 -27 55 -44 62 -40 7 4 8 3 4 -4 -4 -7 -4 -12 1 -13 4 0 15 -2 23 -4
108 -29 149 -35 245 -35 91 0 122 5 179 25 38 13 74 21 80 18 6 -3 8 -3 4 2
-4 4 12 23 37 41 63 49 113 121 110 161 -1 12 2 20 6 17 13 -8 22 64 16 122
-10 93 -36 147 -108 225 -15 15 -24 31 -21 34 3 3 -1 5 -9 5 -9 0 -24 8 -35
18 -10 10 -27 21 -36 25 -10 3 -18 11 -18 17 0 6 -5 8 -10 5 -6 -4 -17 -1 -25
5 -8 6 -20 8 -26 4 -7 -4 -9 -3 -6 3 4 6 -28 24 -76 43 -106 42 -207 92 -207
103 0 4 -5 5 -12 1 -6 -4 -8 -3 -4 4 3 6 -1 15 -10 20 -9 5 -15 13 -15 18 0 5
-2 17 -5 27 -13 40 17 115 48 121 7 2 25 8 40 14 43 18 96 20 162 8 122 -23
170 -79 164 -191 -4 -77 -1 -79 92 -61 l65 12 -3 45 c-6 103 -50 191 -117 238
-80 55 -255 81 -377 55z"/>
<path d="M6980 5846 l0 -47 31 21 c16 12 29 23 27 24 -2 0 -15 12 -30 25 l-28
24 0 -47z"/>
<path d="M6677 5268 c-89 -121 -96 -133 -75 -136 37 -4 139 -23 153 -28 10 -4
15 25 20 128 4 74 6 142 4 151 -3 11 -37 -28 -102 -115z"/>
<path d="M4243 5278 c4 -29 7 -99 7 -155 l0 -103 54 0 c103 0 156 41 156 119
0 68 -50 118 -174 171 l-49 21 6 -53z"/>
<path d="M8056 5279 c-49 -44 -75 -79 -56 -79 13 0 98 78 111 102 16 29 -5 21
-55 -23z"/>
<path d="M7650 5175 c-10 -13 -6 -23 26 -59 36 -40 64 -57 64 -38 0 8 -68 112
-74 112 -2 0 -9 -7 -16 -15z"/>
<path d="M3271 5082 c-135 -207 -214 -345 -269 -472 -28 -64 -68 -180 -75
-216 -6 -29 -4 -30 24 -26 40 6 38 -15 -5 -72 -27 -34 -32 -47 -22 -55 8 -7
21 -4 44 9 39 24 42 24 42 6 0 -23 -80 -88 -101 -83 -17 5 -19 -1 -19 -46 0
-130 51 -278 127 -367 135 -158 440 -260 774 -260 132 0 499 40 499 55 0 1 -9
28 -19 61 -11 32 -24 77 -30 99 -6 22 -17 67 -26 100 -22 82 -43 174 -62 277
l-17 86 -31 -5 c-21 -3 -35 0 -44 11 -21 26 -15 102 13 161 23 46 25 59 17 97
-5 23 -12 68 -16 99 -7 61 -7 61 -195 214 -13 11 -54 48 -91 83 l-66 62 -116
0 -116 0 -20 68 c-11 37 -26 92 -34 122 l-13 55 -55 2 -54 3 -44 -68z m-253
-655 c5 -23 -15 -47 -38 -47 -25 0 -31 24 -13 49 17 25 46 24 51 -2z m590 -61
c-4 -19 -1 -22 14 -18 25 6 24 -27 -3 -80 l-21 -41 28 22 c51 40 38 2 -17 -52
-30 -29 -73 -76 -97 -105 -47 -57 -72 -66 -72 -28 0 16 20 46 55 84 30 33 55
62 55 65 0 3 -18 -4 -40 -16 -36 -20 -41 -21 -55 -6 -28 27 -30 80 -4 113 30
38 107 86 137 86 20 0 24 -4 20 -24z m-290 -18 c2 -9 -11 -36 -27 -59 -35 -47
-34 -60 3 -35 31 20 36 20 36 2 0 -19 -79 -86 -102 -86 -23 0 -33 41 -18 72 7
12 -6 3 -29 -22 -39 -43 -41 -44 -56 -26 -23 29 -18 75 11 118 28 40 60 56 76
40 7 -7 1 -23 -18 -49 -24 -32 -21 -30 25 15 55 54 92 66 99 30z"/>
<path d="M3538 4311 c-38 -24 -58 -47 -58 -67 0 -2 6 -4 13 -4 15 0 103 87 96
95 -3 2 -26 -8 -51 -24z"/>
<path d="M7393 4982 c-118 -110 -279 -251 -360 -316 -46 -37 -83 -74 -84 -84
0 -9 -4 -42 -9 -72 -5 -30 -14 -91 -20 -135 -6 -44 -22 -135 -35 -202 -14 -67
-25 -132 -25 -143 0 -37 -24 -37 -183 2 l-38 9 7 52 c4 29 11 58 17 65 7 9 3
12 -15 12 -45 0 -61 71 -34 148 l15 41 -60 -40 c-33 -23 -66 -54 -74 -69 -24
-46 -74 -83 -106 -76 -22 4 -54 -11 -158 -74 -72 -44 -134 -80 -136 -80 -3 0
-24 -11 -46 -25 -22 -14 -93 -53 -157 -87 -64 -34 -118 -62 -119 -63 -2 -1 34
-16 80 -34 45 -18 96 -39 112 -46 17 -7 55 -21 85 -30 30 -9 64 -20 75 -25 62
-25 291 -91 440 -126 165 -40 414 -73 595 -81 185 -7 459 27 532 67 10 6 23
10 28 10 6 0 32 10 58 21 135 62 243 161 297 274 116 241 42 613 -203 1015
-25 41 -51 85 -59 98 -13 21 -15 21 -37 7 -19 -13 -25 -28 -30 -77 -13 -109
-57 -201 -141 -289 -111 -118 -190 -104 -216 37 -15 82 6 189 65 326 9 20 12
39 8 42 -4 2 -35 -21 -69 -52z m217 -457 c0 -16 -46 -84 -127 -187 -29 -37
-53 -69 -53 -72 0 -2 24 20 54 50 57 57 79 65 95 37 7 -13 2 -28 -22 -60 -34
-48 -31 -64 9 -39 14 10 29 15 32 11 10 -10 -12 -38 -57 -69 -39 -28 -42 -29
-58 -13 -15 14 -16 22 -6 50 12 31 12 31 -27 -12 -34 -40 -41 -43 -55 -31 -13
11 -16 26 -13 60 5 50 75 165 151 247 39 43 77 56 77 28z m-300 -79 c0 -8 -5
-18 -11 -22 -8 -4 -8 -8 0 -13 16 -10 -25 -71 -49 -71 -20 0 -60 -63 -60 -95
0 -20 9 -19 45 5 36 24 45 25 45 6 0 -17 -75 -81 -106 -90 -27 -8 -39 8 -47
58 -5 34 -2 44 25 75 31 35 31 36 10 39 -12 2 -22 7 -22 11 0 20 44 61 64 61
12 0 33 11 46 25 26 27 60 33 60 11z m571 -80 c4 -40 -18 -69 -74 -98 -31 -15
-36 -22 -27 -33 13 -15 32 -11 72 17 31 21 38 22 38 5 0 -15 -45 -59 -77 -76
-56 -29 -103 1 -103 66 0 59 101 149 151 136 11 -3 20 -10 20 -17z"/>
<path d="M7799 4314 c-23 -25 -23 -26 -2 -15 23 12 38 29 31 37 -3 2 -15 -8
-29 -22z"/>
<path d="M7547 4953 c-3 -5 -13 -41 -22 -80 -16 -67 -17 -154 -2 -170 27 -26
86 85 94 176 l6 58 -33 12 c-39 13 -38 13 -43 4z"/>
<path d="M4323 4370 c10 -66 25 -128 26 -106 0 11 13 34 27 53 14 19 24 35 23
37 -2 1 -22 16 -43 32 l-39 29 6 -45z"/>
<path d="M4425 4309 c-11 -17 1 -21 15 -4 8 9 8 15 2 15 -6 0 -14 -5 -17 -11z"/>
<path d="M6115 4308 c-28 -15 -65 -50 -65 -60 0 -5 20 5 45 23 25 18 45 36 45
41 0 10 0 10 -25 -4z"/>
<path d="M6667 4289 c-15 -20 -11 -68 3 -52 10 10 24 73 16 73 -3 0 -11 -9
-19 -21z"/>
<path d="M4101 4276 c-12 -14 -5 -46 10 -46 5 0 9 14 9 30 0 34 -3 36 -19 16z"/>
<path d="M4443 4271 c-37 -18 -43 -41 -12 -41 27 0 80 31 76 45 -5 15 -29 14
-64 -4z"/>
<path d="M4512 4241 c-15 -33 -70 -71 -104 -71 -15 0 -34 8 -44 18 -17 16 -17
16 -11 -8 4 -14 12 -50 18 -80 6 -30 14 -68 19 -85 5 -16 21 -77 35 -135 58
-239 143 -479 252 -710 106 -224 216 -386 357 -525 257 -254 527 -299 791
-132 203 128 421 421 560 752 21 50 43 96 49 103 10 14 -7 32 -32 32 -7 0 -34
6 -60 14 -26 8 -74 22 -107 31 -175 51 -432 144 -614 224 -105 46 -118 48
-167 26 -19 -8 -51 -22 -71 -31 -21 -8 -47 -19 -58 -24 -105 -46 -183 -76
-354 -134 -58 -20 -109 -36 -115 -36 -12 0 -56 131 -59 176 -2 26 3 31 43 45
25 9 52 18 60 22 8 3 44 15 80 27 36 11 74 25 85 30 11 4 57 23 102 41 l82 32
-37 20 c-151 80 -212 113 -244 133 -21 13 -40 24 -42 24 -10 0 -206 121 -211
131 -4 5 -16 9 -28 9 -12 0 -32 11 -45 25 -13 13 -45 37 -71 53 l-47 29 -12
-26z"/>
<path d="M2671 4244 c0 -11 3 -14 6 -6 3 7 2 16 -1 19 -3 4 -6 -2 -5 -13z"/>
<path d="M2149 4314 c-22 -25 -22 -26 -3 -16 12 6 24 18 28 27 8 21 3 19 -25
-11z"/>
<path d="M4400 2127 c0 -9 -3 -23 -6 -32 -6 -16 -5 -16 25 0 35 18 37 38 3 43
-14 2 -22 -2 -22 -11z"/>
<path d="M4386 2012 c-3 -3 -6 -13 -6 -23 0 -16 4 -17 30 -8 16 6 28 14 25 19
-6 10 -42 19 -49 12z"/>
<path d="M5273 2131 c-12 -9 -32 -47 -47 -91 -11 -32 -11 -43 -1 -57 11 -14
18 -16 42 -8 15 6 27 14 25 18 -2 5 4 20 13 34 9 14 17 42 17 62 0 20 4 39 9
42 6 3 -4 6 -20 6 -17 0 -34 -3 -38 -6z"/>
<path d="M6427 2081 c-21 -35 -22 -51 -3 -51 8 0 17 15 21 36 8 46 3 51 -18
15z"/>
<path d="M5657 2073 c-13 -12 -7 -23 13 -23 11 0 20 7 20 15 0 15 -21 21 -33
8z"/>
<path d="M6217 2073 c-13 -12 -7 -23 13 -23 11 0 20 7 20 15 0 15 -21 21 -33
8z"/>
<path d="M6577 2062 c-9 -10 -20 -33 -23 -50 -5 -25 -3 -32 9 -32 19 0 47 49
47 80 0 25 -12 26 -33 2z"/>
<path d="M6720 2048 c-24 -39 -26 -68 -5 -68 17 0 45 50 45 80 0 30 -18 24
-40 -12z"/>
<path d="M8976 8400 c-34 -11 -73 -45 -92 -82 -47 -90 34 -208 144 -208 38 0
41 -3 108 -97 458 -644 733 -1363 818 -2140 9 -78 16 -166 16 -196 l0 -53 -55
-23 c-106 -44 -165 -144 -165 -278 0 -177 -37 -521 -79 -738 -300 -1540 -1434
-2790 -2944 -3246 -361 -110 -816 -179 -1169 -179 -138 0 -197 -20 -261 -89
-76 -81 -92 -185 -46 -291 36 -80 103 -134 191 -150 121 -23 646 18 956 76
1581 292 2945 1412 3544 2909 214 534 332 1109 341 1660 2 136 1 142 -26 197
-34 69 -84 113 -153 135 l-51 16 -12 146 c-69 841 -363 1627 -872 2333 -41 56
-41 56 -23 83 25 38 24 117 -2 152 -43 57 -108 82 -168 63z"/>
<path d="M9294 4308 l-19 -23 23 19 c12 11 22 21 22 23 0 8 -8 2 -26 -19z"/>
<path d="M1788 4253 c-52 -41 -56 -47 -46 -69 6 -13 14 -24 17 -24 3 0 19 21
35 48 17 26 36 57 44 70 19 29 17 28 -50 -25z"/>
<path d="M9277 4253 c-12 -11 -8 -23 8 -23 8 0 15 7 15 15 0 16 -12 20 -23 8z"/>
</g>
</svg>
